<mxfile host="app.diagrams.net" modified="2024-01-12T13:59:37.754Z" agent="Mozilla/5.0 (Macintosh; Intel Mac OS X 10.15; rv:121.0) Gecko/20100101 Firefox/121.0" etag="GmF7M6BxwDJYMDv6OlMi" version="22.1.18" type="github" pages="2">
  <diagram name="Page-1" id="9f46799a-70d6-7492-0946-bef42562c5a5">
    <mxGraphModel dx="1034" dy="1914" grid="1" gridSize="10" guides="1" tooltips="1" connect="1" arrows="1" fold="1" page="1" pageScale="1" pageWidth="1000" pageHeight="700" background="none" math="0" shadow="0">
      <root>
        <mxCell id="0" />
        <mxCell id="1" parent="0" />
        <mxCell id="78961159f06e98e8-17" value="User" style="swimlane;html=1;fontStyle=1;align=center;verticalAlign=top;childLayout=stackLayout;horizontal=1;startSize=26;horizontalStack=0;resizeParent=1;resizeLast=0;collapsible=1;marginBottom=0;swimlaneFillColor=#ffffff;rounded=1;shadow=0;comic=0;labelBackgroundColor=none;strokeWidth=1;fillColor=none;fontFamily=Verdana;fontSize=12;arcSize=19;" parent="1" vertex="1">
          <mxGeometry x="40" y="-370" width="210" height="124" as="geometry">
            <mxRectangle x="70" y="83" width="70" height="30" as="alternateBounds" />
          </mxGeometry>
        </mxCell>
        <mxCell id="78961159f06e98e8-21" value="_ID_username: int" style="text;html=1;strokeColor=none;fillColor=none;align=left;verticalAlign=top;spacingLeft=4;spacingRight=4;whiteSpace=wrap;overflow=hidden;rotatable=0;points=[[0,0.5],[1,0.5]];portConstraint=eastwest;labelBackgroundColor=none;rounded=1;" parent="78961159f06e98e8-17" vertex="1">
          <mxGeometry y="26" width="210" height="30" as="geometry" />
        </mxCell>
        <mxCell id="78961159f06e98e8-23" value="password: char[255]" style="text;html=1;strokeColor=none;fillColor=none;align=left;verticalAlign=top;spacingLeft=4;spacingRight=4;whiteSpace=wrap;overflow=hidden;rotatable=0;points=[[0,0.5],[1,0.5]];portConstraint=eastwest;labelBackgroundColor=none;rounded=1;" parent="78961159f06e98e8-17" vertex="1">
          <mxGeometry y="56" width="210" height="30" as="geometry" />
        </mxCell>
        <mxCell id="78961159f06e98e8-19" value="" style="line;html=1;strokeWidth=1;fillColor=none;align=left;verticalAlign=middle;spacingTop=-1;spacingLeft=3;spacingRight=3;rotatable=0;labelPosition=right;points=[];portConstraint=eastwest;labelBackgroundColor=none;rounded=1;" parent="78961159f06e98e8-17" vertex="1">
          <mxGeometry y="86" width="210" height="8" as="geometry" />
        </mxCell>
        <mxCell id="78961159f06e98e8-20" value="+ Login(User): User" style="text;html=1;strokeColor=none;fillColor=none;align=left;verticalAlign=top;spacingLeft=4;spacingRight=4;whiteSpace=wrap;overflow=hidden;rotatable=0;points=[[0,0.5],[1,0.5]];portConstraint=eastwest;labelBackgroundColor=none;rounded=1;" parent="78961159f06e98e8-17" vertex="1">
          <mxGeometry y="94" width="210" height="30" as="geometry" />
        </mxCell>
        <mxCell id="PtKEEvkuK-J1Ukp3apgT-69" style="edgeStyle=orthogonalEdgeStyle;rounded=1;orthogonalLoop=1;jettySize=auto;html=1;entryX=0.5;entryY=0;entryDx=0;entryDy=0;" parent="1" source="78961159f06e98e8-30" edge="1">
          <mxGeometry relative="1" as="geometry">
            <mxPoint x="435" y="110" as="targetPoint" />
          </mxGeometry>
        </mxCell>
        <mxCell id="78961159f06e98e8-30" value="BaseUser" style="swimlane;html=1;fontStyle=1;align=center;verticalAlign=top;childLayout=stackLayout;horizontal=1;startSize=26;horizontalStack=0;resizeParent=1;resizeLast=0;collapsible=1;marginBottom=0;swimlaneFillColor=#ffffff;rounded=1;shadow=0;comic=0;labelBackgroundColor=none;strokeWidth=1;fillColor=none;fontFamily=Verdana;fontSize=12;" parent="1" vertex="1">
          <mxGeometry x="320" y="-370" width="230" height="386" as="geometry">
            <mxRectangle x="320" y="-370" width="100" height="30" as="alternateBounds" />
          </mxGeometry>
        </mxCell>
        <mxCell id="78961159f06e98e8-31" value="profile: Profile&amp;nbsp;" style="text;html=1;strokeColor=none;fillColor=none;align=left;verticalAlign=top;spacingLeft=4;spacingRight=4;whiteSpace=wrap;overflow=hidden;rotatable=0;points=[[0,0.5],[1,0.5]];portConstraint=eastwest;labelBackgroundColor=none;rounded=1;" parent="78961159f06e98e8-30" vertex="1">
          <mxGeometry y="26" width="230" height="30" as="geometry" />
        </mxCell>
        <mxCell id="78961159f06e98e8-32" value="personalInfo: PrivateInfo" style="text;html=1;strokeColor=none;fillColor=none;align=left;verticalAlign=top;spacingLeft=4;spacingRight=4;whiteSpace=wrap;overflow=hidden;rotatable=0;points=[[0,0.5],[1,0.5]];portConstraint=eastwest;labelBackgroundColor=none;rounded=1;" parent="78961159f06e98e8-30" vertex="1">
          <mxGeometry y="56" width="230" height="30" as="geometry" />
        </mxCell>
        <mxCell id="78961159f06e98e8-42" value="posts: GeneralPost" style="text;html=1;strokeColor=none;fillColor=none;align=left;verticalAlign=top;spacingLeft=4;spacingRight=4;whiteSpace=wrap;overflow=hidden;rotatable=0;points=[[0,0.5],[1,0.5]];portConstraint=eastwest;labelBackgroundColor=none;rounded=1;" parent="78961159f06e98e8-30" vertex="1">
          <mxGeometry y="86" width="230" height="30" as="geometry" />
        </mxCell>
        <mxCell id="78961159f06e98e8-38" value="" style="line;html=1;strokeWidth=1;fillColor=none;align=left;verticalAlign=middle;spacingTop=-1;spacingLeft=3;spacingRight=3;rotatable=0;labelPosition=right;points=[];portConstraint=eastwest;labelBackgroundColor=none;rounded=1;" parent="78961159f06e98e8-30" vertex="1">
          <mxGeometry y="116" width="230" height="8" as="geometry" />
        </mxCell>
        <mxCell id="PtKEEvkuK-J1Ukp3apgT-60" value="+ CreateProfile(): Profile&amp;nbsp;" style="text;html=1;strokeColor=none;fillColor=none;align=left;verticalAlign=top;spacingLeft=4;spacingRight=4;whiteSpace=wrap;overflow=hidden;rotatable=0;points=[[0,0.5],[1,0.5]];portConstraint=eastwest;labelBackgroundColor=none;rounded=1;fontStyle=0" parent="78961159f06e98e8-30" vertex="1">
          <mxGeometry y="124" width="230" height="30" as="geometry" />
        </mxCell>
        <mxCell id="PtKEEvkuK-J1Ukp3apgT-14" value="+ CreatePost(GeneralPost): GeneralPost" style="text;html=1;strokeColor=none;fillColor=none;align=left;verticalAlign=top;spacingLeft=4;spacingRight=4;whiteSpace=wrap;overflow=hidden;rotatable=0;points=[[0,0.5],[1,0.5]];portConstraint=eastwest;labelBackgroundColor=none;rounded=1;" parent="78961159f06e98e8-30" vertex="1">
          <mxGeometry y="154" width="230" height="26" as="geometry" />
        </mxCell>
        <mxCell id="PtKEEvkuK-J1Ukp3apgT-27" value="+ UpVote(GeneralPost): void&amp;nbsp;" style="text;html=1;strokeColor=none;fillColor=none;align=left;verticalAlign=top;spacingLeft=4;spacingRight=4;whiteSpace=wrap;overflow=hidden;rotatable=0;points=[[0,0.5],[1,0.5]];portConstraint=eastwest;labelBackgroundColor=none;rounded=1;" parent="78961159f06e98e8-30" vertex="1">
          <mxGeometry y="180" width="230" height="30" as="geometry" />
        </mxCell>
        <mxCell id="PtKEEvkuK-J1Ukp3apgT-30" value="+ Repost(GeneralPost): void&amp;nbsp;" style="text;html=1;strokeColor=none;fillColor=none;align=left;verticalAlign=top;spacingLeft=4;spacingRight=4;whiteSpace=wrap;overflow=hidden;rotatable=0;points=[[0,0.5],[1,0.5]];portConstraint=eastwest;labelBackgroundColor=none;rounded=1;" parent="78961159f06e98e8-30" vertex="1">
          <mxGeometry y="210" width="230" height="30" as="geometry" />
        </mxCell>
        <mxCell id="PtKEEvkuK-J1Ukp3apgT-28" value="+ Archieve(GeneralPost): void&amp;nbsp;" style="text;html=1;strokeColor=none;fillColor=none;align=left;verticalAlign=top;spacingLeft=4;spacingRight=4;whiteSpace=wrap;overflow=hidden;rotatable=0;points=[[0,0.5],[1,0.5]];portConstraint=eastwest;labelBackgroundColor=none;rounded=1;fontStyle=0" parent="78961159f06e98e8-30" vertex="1">
          <mxGeometry y="240" width="230" height="30" as="geometry" />
        </mxCell>
        <mxCell id="PtKEEvkuK-J1Ukp3apgT-41" value="+ Quote(GeneralPost): void&amp;nbsp;" style="text;html=1;strokeColor=none;fillColor=none;align=left;verticalAlign=top;spacingLeft=4;spacingRight=4;whiteSpace=wrap;overflow=hidden;rotatable=0;points=[[0,0.5],[1,0.5]];portConstraint=eastwest;labelBackgroundColor=none;rounded=1;fontStyle=0" parent="78961159f06e98e8-30" vertex="1">
          <mxGeometry y="270" width="230" height="30" as="geometry" />
        </mxCell>
        <mxCell id="PtKEEvkuK-J1Ukp3apgT-83" value="+ DeleteOwnPost(GeneralPost): void&amp;nbsp;" style="text;html=1;strokeColor=none;fillColor=none;align=left;verticalAlign=top;spacingLeft=4;spacingRight=4;whiteSpace=wrap;overflow=hidden;rotatable=0;points=[[0,0.5],[1,0.5]];portConstraint=eastwest;labelBackgroundColor=none;rounded=1;fontStyle=0" parent="78961159f06e98e8-30" vertex="1">
          <mxGeometry y="300" width="230" height="30" as="geometry" />
        </mxCell>
        <mxCell id="W8Eo2KiSVNG3GYRRurKq-4" value="+ EditPost(GeneralPost):void" style="text;html=1;strokeColor=none;fillColor=none;align=left;verticalAlign=top;spacingLeft=4;spacingRight=4;whiteSpace=wrap;overflow=hidden;rotatable=0;points=[[0,0.5],[1,0.5]];portConstraint=eastwest;labelBackgroundColor=none;rounded=1;" parent="78961159f06e98e8-30" vertex="1">
          <mxGeometry y="330" width="230" height="26" as="geometry" />
        </mxCell>
        <mxCell id="78961159f06e98e8-43" value="GeneralPost" style="swimlane;html=1;fontStyle=1;align=center;verticalAlign=top;childLayout=stackLayout;horizontal=1;startSize=26;horizontalStack=0;resizeParent=1;resizeLast=0;collapsible=1;marginBottom=0;swimlaneFillColor=#ffffff;rounded=1;shadow=0;comic=0;labelBackgroundColor=none;strokeWidth=1;fillColor=#f8cecc;fontFamily=Verdana;fontSize=12;strokeColor=#b85450;" parent="1" vertex="1">
          <mxGeometry x="630" y="10" width="150" height="420" as="geometry" />
        </mxCell>
        <mxCell id="PtKEEvkuK-J1Ukp3apgT-18" value="author: User" style="text;html=1;strokeColor=none;fillColor=none;align=left;verticalAlign=top;spacingLeft=4;spacingRight=4;whiteSpace=wrap;overflow=hidden;rotatable=0;points=[[0,0.5],[1,0.5]];portConstraint=eastwest;labelBackgroundColor=none;rounded=1;" parent="78961159f06e98e8-43" vertex="1">
          <mxGeometry y="26" width="150" height="30" as="geometry" />
        </mxCell>
        <mxCell id="78961159f06e98e8-44" value="dateTime: DateTime&amp;nbsp;" style="text;html=1;strokeColor=none;fillColor=none;align=left;verticalAlign=top;spacingLeft=4;spacingRight=4;whiteSpace=wrap;overflow=hidden;rotatable=0;points=[[0,0.5],[1,0.5]];portConstraint=eastwest;labelBackgroundColor=none;rounded=1;" parent="78961159f06e98e8-43" vertex="1">
          <mxGeometry y="56" width="150" height="30" as="geometry" />
        </mxCell>
        <mxCell id="78961159f06e98e8-45" value="likes: int&amp;nbsp;" style="text;html=1;strokeColor=none;fillColor=none;align=left;verticalAlign=top;spacingLeft=4;spacingRight=4;whiteSpace=wrap;overflow=hidden;rotatable=0;points=[[0,0.5],[1,0.5]];portConstraint=eastwest;labelBackgroundColor=none;rounded=1;" parent="78961159f06e98e8-43" vertex="1">
          <mxGeometry y="86" width="150" height="30" as="geometry" />
        </mxCell>
        <mxCell id="78961159f06e98e8-49" value="reposts: int&amp;nbsp;" style="text;html=1;strokeColor=none;fillColor=none;align=left;verticalAlign=top;spacingLeft=4;spacingRight=4;whiteSpace=wrap;overflow=hidden;rotatable=0;points=[[0,0.5],[1,0.5]];portConstraint=eastwest;labelBackgroundColor=none;rounded=1;" parent="78961159f06e98e8-43" vertex="1">
          <mxGeometry y="116" width="150" height="30" as="geometry" />
        </mxCell>
        <mxCell id="78961159f06e98e8-50" value="archieves: int&amp;nbsp;" style="text;html=1;strokeColor=none;fillColor=none;align=left;verticalAlign=top;spacingLeft=4;spacingRight=4;whiteSpace=wrap;overflow=hidden;rotatable=0;points=[[0,0.5],[1,0.5]];portConstraint=eastwest;labelBackgroundColor=none;rounded=1;" parent="78961159f06e98e8-43" vertex="1">
          <mxGeometry y="146" width="150" height="30" as="geometry" />
        </mxCell>
        <mxCell id="PtKEEvkuK-J1Ukp3apgT-43" value="quotes: int&amp;nbsp;" style="text;html=1;strokeColor=none;fillColor=none;align=left;verticalAlign=top;spacingLeft=4;spacingRight=4;whiteSpace=wrap;overflow=hidden;rotatable=0;points=[[0,0.5],[1,0.5]];portConstraint=eastwest;labelBackgroundColor=none;rounded=1;" parent="78961159f06e98e8-43" vertex="1">
          <mxGeometry y="176" width="150" height="30" as="geometry" />
        </mxCell>
        <mxCell id="PtKEEvkuK-J1Ukp3apgT-19" value="views: int&amp;nbsp;" style="text;html=1;strokeColor=none;fillColor=none;align=left;verticalAlign=top;spacingLeft=4;spacingRight=4;whiteSpace=wrap;overflow=hidden;rotatable=0;points=[[0,0.5],[1,0.5]];portConstraint=eastwest;labelBackgroundColor=none;rounded=1;" parent="78961159f06e98e8-43" vertex="1">
          <mxGeometry y="206" width="150" height="30" as="geometry" />
        </mxCell>
        <mxCell id="78961159f06e98e8-51" value="" style="line;html=1;strokeWidth=1;fillColor=none;align=left;verticalAlign=middle;spacingTop=-1;spacingLeft=3;spacingRight=3;rotatable=0;labelPosition=right;points=[];portConstraint=eastwest;labelBackgroundColor=none;rounded=1;" parent="78961159f06e98e8-43" vertex="1">
          <mxGeometry y="236" width="150" height="9" as="geometry" />
        </mxCell>
        <mxCell id="78961159f06e98e8-52" value="+ EditPost(): void" style="text;html=1;strokeColor=#b85450;fillColor=#f8cecc;align=left;verticalAlign=top;spacingLeft=4;spacingRight=4;whiteSpace=wrap;overflow=hidden;rotatable=0;points=[[0,0.5],[1,0.5]];portConstraint=eastwest;labelBackgroundColor=none;rounded=1;" parent="78961159f06e98e8-43" vertex="1">
          <mxGeometry y="245" width="150" height="30" as="geometry" />
        </mxCell>
        <mxCell id="78961159f06e98e8-53" value="+ DeletePost() void" style="text;html=1;align=left;verticalAlign=top;spacingLeft=4;spacingRight=4;whiteSpace=wrap;overflow=hidden;rotatable=0;points=[[0,0.5],[1,0.5]];portConstraint=eastwest;labelBackgroundColor=none;rounded=1;" parent="78961159f06e98e8-43" vertex="1">
          <mxGeometry y="275" width="150" height="30" as="geometry" />
        </mxCell>
        <mxCell id="PtKEEvkuK-J1Ukp3apgT-151" value="+ InsertMedia() void" style="text;html=1;strokeColor=none;fillColor=none;align=left;verticalAlign=top;spacingLeft=4;spacingRight=4;whiteSpace=wrap;overflow=hidden;rotatable=0;points=[[0,0.5],[1,0.5]];portConstraint=eastwest;labelBackgroundColor=none;rounded=1;" parent="78961159f06e98e8-43" vertex="1">
          <mxGeometry y="305" width="150" height="30" as="geometry" />
        </mxCell>
        <mxCell id="PtKEEvkuK-J1Ukp3apgT-152" value="+ EmbedLink() void" style="text;html=1;strokeColor=none;fillColor=none;align=left;verticalAlign=top;spacingLeft=4;spacingRight=4;whiteSpace=wrap;overflow=hidden;rotatable=0;points=[[0,0.5],[1,0.5]];portConstraint=eastwest;labelBackgroundColor=none;rounded=1;" parent="78961159f06e98e8-43" vertex="1">
          <mxGeometry y="335" width="150" height="30" as="geometry" />
        </mxCell>
        <mxCell id="PtKEEvkuK-J1Ukp3apgT-161" value="+ Display() hmtl" style="text;html=1;strokeColor=#82b366;fillColor=#d5e8d4;align=left;verticalAlign=top;spacingLeft=4;spacingRight=4;whiteSpace=wrap;overflow=hidden;rotatable=0;points=[[0,0.5],[1,0.5]];portConstraint=eastwest;labelBackgroundColor=none;rounded=1;" parent="78961159f06e98e8-43" vertex="1">
          <mxGeometry y="365" width="150" height="25" as="geometry" />
        </mxCell>
        <mxCell id="PtKEEvkuK-J1Ukp3apgT-164" value="+ Reply() Comment" style="text;html=1;strokeColor=none;fillColor=none;align=left;verticalAlign=top;spacingLeft=4;spacingRight=4;whiteSpace=wrap;overflow=hidden;rotatable=0;points=[[0,0.5],[1,0.5]];portConstraint=eastwest;labelBackgroundColor=none;rounded=1;" parent="78961159f06e98e8-43" vertex="1">
          <mxGeometry y="390" width="150" height="20" as="geometry" />
        </mxCell>
        <mxCell id="PtKEEvkuK-J1Ukp3apgT-2" value="&lt;b&gt;Note&lt;/b&gt;:&amp;nbsp;&lt;br&gt;&amp;nbsp; - &lt;b&gt;Continuous lines&lt;/b&gt; specify the relationships between the classes.&lt;div&gt;&amp;nbsp; - &lt;b&gt;Dashed lines&lt;/b&gt; specify the relationships between the classes and interfaces.&lt;br&gt;&amp;nbsp; - &lt;b&gt;Normal arrow &lt;/b&gt;means the classes which pointed, are subclasses of pointing classes.&amp;nbsp;&lt;/div&gt;&lt;div&gt;&amp;nbsp; - &lt;b&gt;Diamond blocks&lt;/b&gt; show the methods that one object uses to interact with other objects &lt;i&gt;without making any change&lt;/i&gt;.&lt;/div&gt;&lt;div&gt;&amp;nbsp; - &lt;b&gt;Point or circle arrow&amp;nbsp;&lt;/b&gt;show methods that one object us uses to interact with other objects by reference &lt;i&gt;(means making change)&lt;/i&gt;&lt;/div&gt;" style="rounded=1;html=1;fillColor=#B8EAFF;align=left;labelBackgroundColor=none;whiteSpace=wrap;spacing=3;spacingLeft=5;glass=0;shadow=1;" parent="1" vertex="1">
          <mxGeometry x="70" y="-650" width="280" height="220" as="geometry" />
        </mxCell>
        <mxCell id="PtKEEvkuK-J1Ukp3apgT-7" value="&lt;b&gt;Note&lt;/b&gt;:&amp;nbsp;&lt;br&gt;&amp;nbsp; - Red blocks are Abstract Classes, Greens are interfaces, Yellows are enum.&lt;br&gt;&amp;nbsp; - Every first letter of class name type will be an Uppercase and lowercase for primitive type.&lt;br&gt;&amp;nbsp; - If an attribute is defined with &lt;b&gt;_ID_&amp;nbsp;&lt;/b&gt;or &lt;b&gt;_KEY_ &lt;/b&gt;then that is unique in all class instances and can not be matched.&amp;nbsp;&lt;br&gt;&amp;nbsp; - If an attribute is defined with &lt;b&gt;_CONSTANT_ &lt;/b&gt;then that can not be changed or delete in any case." style="rounded=1;html=1;fillColor=#E0FFC2;align=left;labelBackgroundColor=none;whiteSpace=wrap;spacing=3;spacingLeft=5;glass=0;shadow=1;" parent="1" vertex="1">
          <mxGeometry x="390" y="-650" width="270" height="210" as="geometry" />
        </mxCell>
        <mxCell id="PtKEEvkuK-J1Ukp3apgT-50" value="Profile" style="swimlane;html=1;fontStyle=1;align=center;verticalAlign=top;childLayout=stackLayout;horizontal=1;startSize=26;horizontalStack=0;resizeParent=1;resizeLast=0;collapsible=1;marginBottom=0;swimlaneFillColor=#ffffff;rounded=1;shadow=0;comic=0;labelBackgroundColor=none;strokeWidth=1;fillColor=none;fontFamily=Verdana;fontSize=12;" parent="1" vertex="1">
          <mxGeometry x="620" y="-370" width="230" height="230" as="geometry" />
        </mxCell>
        <mxCell id="PtKEEvkuK-J1Ukp3apgT-51" value="profileName: char[255]&amp;nbsp;" style="text;html=1;strokeColor=none;fillColor=none;align=left;verticalAlign=top;spacingLeft=4;spacingRight=4;whiteSpace=wrap;overflow=hidden;rotatable=0;points=[[0,0.5],[1,0.5]];portConstraint=eastwest;labelBackgroundColor=none;rounded=1;" parent="PtKEEvkuK-J1Ukp3apgT-50" vertex="1">
          <mxGeometry y="26" width="230" height="30" as="geometry" />
        </mxCell>
        <mxCell id="PtKEEvkuK-J1Ukp3apgT-52" value="avatar: Image" style="text;html=1;strokeColor=none;fillColor=none;align=left;verticalAlign=top;spacingLeft=4;spacingRight=4;whiteSpace=wrap;overflow=hidden;rotatable=0;points=[[0,0.5],[1,0.5]];portConstraint=eastwest;labelBackgroundColor=none;rounded=1;" parent="PtKEEvkuK-J1Ukp3apgT-50" vertex="1">
          <mxGeometry y="56" width="230" height="30" as="geometry" />
        </mxCell>
        <mxCell id="PtKEEvkuK-J1Ukp3apgT-67" value="publicInfo: PublicInfo" style="text;html=1;strokeColor=none;fillColor=none;align=left;verticalAlign=top;spacingLeft=4;spacingRight=4;whiteSpace=wrap;overflow=hidden;rotatable=0;points=[[0,0.5],[1,0.5]];portConstraint=eastwest;labelBackgroundColor=none;rounded=1;" parent="PtKEEvkuK-J1Ukp3apgT-50" vertex="1">
          <mxGeometry y="86" width="230" height="30" as="geometry" />
        </mxCell>
        <mxCell id="PtKEEvkuK-J1Ukp3apgT-54" value="" style="line;html=1;strokeWidth=1;fillColor=none;align=left;verticalAlign=middle;spacingTop=-1;spacingLeft=3;spacingRight=3;rotatable=0;labelPosition=right;points=[];portConstraint=eastwest;labelBackgroundColor=none;rounded=1;" parent="PtKEEvkuK-J1Ukp3apgT-50" vertex="1">
          <mxGeometry y="116" width="230" height="8" as="geometry" />
        </mxCell>
        <mxCell id="PtKEEvkuK-J1Ukp3apgT-55" value="+ ChangeName(char[255]): void" style="text;html=1;strokeColor=none;fillColor=none;align=left;verticalAlign=top;spacingLeft=4;spacingRight=4;whiteSpace=wrap;overflow=hidden;rotatable=0;points=[[0,0.5],[1,0.5]];portConstraint=eastwest;labelBackgroundColor=none;rounded=1;" parent="PtKEEvkuK-J1Ukp3apgT-50" vertex="1">
          <mxGeometry y="124" width="230" height="30" as="geometry" />
        </mxCell>
        <mxCell id="PtKEEvkuK-J1Ukp3apgT-56" value="+ ChangeAvatar(imagae): void&amp;nbsp;" style="text;html=1;strokeColor=none;fillColor=none;align=left;verticalAlign=top;spacingLeft=4;spacingRight=4;whiteSpace=wrap;overflow=hidden;rotatable=0;points=[[0,0.5],[1,0.5]];portConstraint=eastwest;labelBackgroundColor=none;rounded=1;" parent="PtKEEvkuK-J1Ukp3apgT-50" vertex="1">
          <mxGeometry y="154" width="230" height="30" as="geometry" />
        </mxCell>
        <mxCell id="PtKEEvkuK-J1Ukp3apgT-93" value="+ ChangeInfo(PrivateInfo): void&amp;nbsp;" style="text;html=1;strokeColor=none;fillColor=none;align=left;verticalAlign=top;spacingLeft=4;spacingRight=4;whiteSpace=wrap;overflow=hidden;rotatable=0;points=[[0,0.5],[1,0.5]];portConstraint=eastwest;labelBackgroundColor=none;rounded=1;" parent="PtKEEvkuK-J1Ukp3apgT-50" vertex="1">
          <mxGeometry y="184" width="230" height="30" as="geometry" />
        </mxCell>
        <mxCell id="PtKEEvkuK-J1Ukp3apgT-68" style="edgeStyle=orthogonalEdgeStyle;rounded=1;orthogonalLoop=1;jettySize=auto;html=1;entryX=-0.009;entryY=0.029;entryDx=0;entryDy=0;entryPerimeter=0;" parent="1" source="78961159f06e98e8-17" target="78961159f06e98e8-30" edge="1">
          <mxGeometry relative="1" as="geometry" />
        </mxCell>
        <mxCell id="PtKEEvkuK-J1Ukp3apgT-71" value="Adminstrators" style="swimlane;html=1;fontStyle=1;align=center;verticalAlign=top;childLayout=stackLayout;horizontal=1;startSize=26;horizontalStack=0;resizeParent=1;resizeLast=0;collapsible=1;marginBottom=0;swimlaneFillColor=#ffffff;rounded=1;shadow=0;comic=0;labelBackgroundColor=none;strokeWidth=1;fillColor=none;fontFamily=Verdana;fontSize=12;" parent="1" vertex="1">
          <mxGeometry x="40" y="-171" width="230" height="310" as="geometry" />
        </mxCell>
        <mxCell id="PtKEEvkuK-J1Ukp3apgT-72" value="_ID_admin: int" style="text;html=1;strokeColor=none;fillColor=none;align=left;verticalAlign=top;spacingLeft=4;spacingRight=4;whiteSpace=wrap;overflow=hidden;rotatable=0;points=[[0,0.5],[1,0.5]];portConstraint=eastwest;labelBackgroundColor=none;rounded=1;" parent="PtKEEvkuK-J1Ukp3apgT-71" vertex="1">
          <mxGeometry y="26" width="230" height="30" as="geometry" />
        </mxCell>
        <mxCell id="PtKEEvkuK-J1Ukp3apgT-73" value="accessPrivilegeLevel: AccessPrivilege" style="text;html=1;strokeColor=none;fillColor=none;align=left;verticalAlign=top;spacingLeft=4;spacingRight=4;whiteSpace=wrap;overflow=hidden;rotatable=0;points=[[0,0.5],[1,0.5]];portConstraint=eastwest;labelBackgroundColor=none;rounded=1;" parent="PtKEEvkuK-J1Ukp3apgT-71" vertex="1">
          <mxGeometry y="56" width="230" height="30" as="geometry" />
        </mxCell>
        <mxCell id="PtKEEvkuK-J1Ukp3apgT-84" value="personalInfo: PrivateInfo" style="text;html=1;strokeColor=none;fillColor=none;align=left;verticalAlign=top;spacingLeft=4;spacingRight=4;whiteSpace=wrap;overflow=hidden;rotatable=0;points=[[0,0.5],[1,0.5]];portConstraint=eastwest;labelBackgroundColor=none;rounded=1;" parent="PtKEEvkuK-J1Ukp3apgT-71" vertex="1">
          <mxGeometry y="86" width="230" height="30" as="geometry" />
        </mxCell>
        <mxCell id="PtKEEvkuK-J1Ukp3apgT-75" value="" style="line;html=1;strokeWidth=1;fillColor=none;align=left;verticalAlign=middle;spacingTop=-1;spacingLeft=3;spacingRight=3;rotatable=0;labelPosition=right;points=[];portConstraint=eastwest;labelBackgroundColor=none;rounded=1;" parent="PtKEEvkuK-J1Ukp3apgT-71" vertex="1">
          <mxGeometry y="116" width="230" height="44" as="geometry" />
        </mxCell>
        <mxCell id="PtKEEvkuK-J1Ukp3apgT-78" value="+ DeletePost(GeneralPost): void" style="text;html=1;strokeColor=none;fillColor=none;align=left;verticalAlign=top;spacingLeft=4;spacingRight=4;whiteSpace=wrap;overflow=hidden;rotatable=0;points=[[0,0.5],[1,0.5]];portConstraint=eastwest;labelBackgroundColor=none;rounded=1;" parent="PtKEEvkuK-J1Ukp3apgT-71" vertex="1">
          <mxGeometry y="160" width="230" height="30" as="geometry" />
        </mxCell>
        <mxCell id="PtKEEvkuK-J1Ukp3apgT-79" value="+ Ban(User): void&amp;nbsp;" style="text;html=1;strokeColor=none;fillColor=none;align=left;verticalAlign=top;spacingLeft=4;spacingRight=4;whiteSpace=wrap;overflow=hidden;rotatable=0;points=[[0,0.5],[1,0.5]];portConstraint=eastwest;labelBackgroundColor=none;rounded=1;" parent="PtKEEvkuK-J1Ukp3apgT-71" vertex="1">
          <mxGeometry y="190" width="230" height="30" as="geometry" />
        </mxCell>
        <mxCell id="W8Eo2KiSVNG3GYRRurKq-9" value="+ PostRanking(GeneralPost): void" style="text;html=1;strokeColor=none;fillColor=none;align=left;verticalAlign=top;spacingLeft=4;spacingRight=4;whiteSpace=wrap;overflow=hidden;rotatable=0;points=[[0,0.5],[1,0.5]];portConstraint=eastwest;labelBackgroundColor=none;rounded=1;" parent="PtKEEvkuK-J1Ukp3apgT-71" vertex="1">
          <mxGeometry y="220" width="230" height="30" as="geometry" />
        </mxCell>
        <mxCell id="BWkIpN7R14qcMGs1ctsh-2" value="+ SetContributor(User): void&amp;nbsp;" style="text;html=1;strokeColor=none;fillColor=none;align=left;verticalAlign=top;spacingLeft=4;spacingRight=4;whiteSpace=wrap;overflow=hidden;rotatable=0;points=[[0,0.5],[1,0.5]];portConstraint=eastwest;labelBackgroundColor=none;rounded=1;" parent="PtKEEvkuK-J1Ukp3apgT-71" vertex="1">
          <mxGeometry y="250" width="230" height="30" as="geometry" />
        </mxCell>
        <mxCell id="PtKEEvkuK-J1Ukp3apgT-82" style="edgeStyle=orthogonalEdgeStyle;rounded=1;orthogonalLoop=1;jettySize=auto;html=1;entryX=0.5;entryY=0;entryDx=0;entryDy=0;" parent="1" source="PtKEEvkuK-J1Ukp3apgT-14" target="PtKEEvkuK-J1Ukp3apgT-71" edge="1">
          <mxGeometry relative="1" as="geometry" />
        </mxCell>
        <mxCell id="PtKEEvkuK-J1Ukp3apgT-86" value="Contributor" style="swimlane;html=1;fontStyle=1;align=center;verticalAlign=top;childLayout=stackLayout;horizontal=1;startSize=26;horizontalStack=0;resizeParent=1;resizeLast=0;collapsible=1;marginBottom=0;swimlaneFillColor=#ffffff;rounded=1;shadow=0;comic=0;labelBackgroundColor=none;strokeWidth=1;fillColor=none;fontFamily=Verdana;fontSize=12;" parent="1" vertex="1">
          <mxGeometry x="320" y="110" width="230" height="117" as="geometry" />
        </mxCell>
        <mxCell id="PtKEEvkuK-J1Ukp3apgT-88" value="accessPrivilegeLevel: AccessPrivilege" style="text;html=1;strokeColor=none;fillColor=none;align=left;verticalAlign=top;spacingLeft=4;spacingRight=4;whiteSpace=wrap;overflow=hidden;rotatable=0;points=[[0,0.5],[1,0.5]];portConstraint=eastwest;labelBackgroundColor=none;rounded=1;" parent="PtKEEvkuK-J1Ukp3apgT-86" vertex="1">
          <mxGeometry y="26" width="230" height="26" as="geometry" />
        </mxCell>
        <mxCell id="PtKEEvkuK-J1Ukp3apgT-89" value="reputation: float" style="text;html=1;strokeColor=none;fillColor=none;align=left;verticalAlign=top;spacingLeft=4;spacingRight=4;whiteSpace=wrap;overflow=hidden;rotatable=0;points=[[0,0.5],[1,0.5]];portConstraint=eastwest;labelBackgroundColor=none;rounded=1;" parent="PtKEEvkuK-J1Ukp3apgT-86" vertex="1">
          <mxGeometry y="52" width="230" height="26" as="geometry" />
        </mxCell>
        <mxCell id="PtKEEvkuK-J1Ukp3apgT-90" value="" style="line;html=1;strokeWidth=1;fillColor=none;align=left;verticalAlign=middle;spacingTop=-1;spacingLeft=3;spacingRight=3;rotatable=0;labelPosition=right;points=[];portConstraint=eastwest;labelBackgroundColor=none;rounded=1;" parent="PtKEEvkuK-J1Ukp3apgT-86" vertex="1">
          <mxGeometry y="78" width="230" height="8" as="geometry" />
        </mxCell>
        <mxCell id="PtKEEvkuK-J1Ukp3apgT-91" value="+ CreateRecipe(): Recipe" style="text;html=1;strokeColor=none;fillColor=none;align=left;verticalAlign=top;spacingLeft=4;spacingRight=4;whiteSpace=wrap;overflow=hidden;rotatable=0;points=[[0,0.5],[1,0.5]];portConstraint=eastwest;labelBackgroundColor=none;rounded=1;" parent="PtKEEvkuK-J1Ukp3apgT-86" vertex="1">
          <mxGeometry y="86" width="230" height="26" as="geometry" />
        </mxCell>
        <mxCell id="PtKEEvkuK-J1Ukp3apgT-115" style="edgeStyle=orthogonalEdgeStyle;rounded=1;orthogonalLoop=1;jettySize=auto;html=1;entryX=0;entryY=0;entryDx=0;entryDy=0;" parent="1" source="PtKEEvkuK-J1Ukp3apgT-94" target="PtKEEvkuK-J1Ukp3apgT-105" edge="1">
          <mxGeometry relative="1" as="geometry" />
        </mxCell>
        <mxCell id="PtKEEvkuK-J1Ukp3apgT-94" value="PublicInfo" style="swimlane;html=1;fontStyle=1;align=center;verticalAlign=top;childLayout=stackLayout;horizontal=1;startSize=26;horizontalStack=0;resizeParent=1;resizeLast=0;collapsible=1;marginBottom=0;swimlaneFillColor=#ffffff;rounded=1;shadow=0;comic=0;labelBackgroundColor=none;strokeWidth=1;fillColor=none;fontFamily=Verdana;fontSize=12;" parent="1" vertex="1">
          <mxGeometry x="880" y="-370" width="280" height="320" as="geometry" />
        </mxCell>
        <mxCell id="PtKEEvkuK-J1Ukp3apgT-95" value="name: char[255]&amp;nbsp;" style="text;html=1;strokeColor=none;fillColor=none;align=left;verticalAlign=top;spacingLeft=4;spacingRight=4;whiteSpace=wrap;overflow=hidden;rotatable=0;points=[[0,0.5],[1,0.5]];portConstraint=eastwest;labelBackgroundColor=none;rounded=1;" parent="PtKEEvkuK-J1Ukp3apgT-94" vertex="1">
          <mxGeometry y="26" width="280" height="30" as="geometry" />
        </mxCell>
        <mxCell id="PtKEEvkuK-J1Ukp3apgT-96" value="age: int" style="text;html=1;strokeColor=none;fillColor=none;align=left;verticalAlign=top;spacingLeft=4;spacingRight=4;whiteSpace=wrap;overflow=hidden;rotatable=0;points=[[0,0.5],[1,0.5]];portConstraint=eastwest;labelBackgroundColor=none;rounded=1;" parent="PtKEEvkuK-J1Ukp3apgT-94" vertex="1">
          <mxGeometry y="56" width="280" height="30" as="geometry" />
        </mxCell>
        <mxCell id="PtKEEvkuK-J1Ukp3apgT-97" value="likes: PublicInfo" style="text;html=1;strokeColor=none;fillColor=none;align=left;verticalAlign=top;spacingLeft=4;spacingRight=4;whiteSpace=wrap;overflow=hidden;rotatable=0;points=[[0,0.5],[1,0.5]];portConstraint=eastwest;labelBackgroundColor=none;rounded=1;" parent="PtKEEvkuK-J1Ukp3apgT-94" vertex="1">
          <mxGeometry y="86" width="280" height="30" as="geometry" />
        </mxCell>
        <mxCell id="PtKEEvkuK-J1Ukp3apgT-103" value="socialMedia: Links" style="text;html=1;strokeColor=none;fillColor=none;align=left;verticalAlign=top;spacingLeft=4;spacingRight=4;whiteSpace=wrap;overflow=hidden;rotatable=0;points=[[0,0.5],[1,0.5]];portConstraint=eastwest;labelBackgroundColor=none;rounded=1;" parent="PtKEEvkuK-J1Ukp3apgT-94" vertex="1">
          <mxGeometry y="116" width="280" height="30" as="geometry" />
        </mxCell>
        <mxCell id="PtKEEvkuK-J1Ukp3apgT-98" value="" style="line;html=1;strokeWidth=1;fillColor=none;align=left;verticalAlign=middle;spacingTop=-1;spacingLeft=3;spacingRight=3;rotatable=0;labelPosition=right;points=[];portConstraint=eastwest;labelBackgroundColor=none;rounded=1;" parent="PtKEEvkuK-J1Ukp3apgT-94" vertex="1">
          <mxGeometry y="146" width="280" height="8" as="geometry" />
        </mxCell>
        <mxCell id="PtKEEvkuK-J1Ukp3apgT-99" value="+ ChangeName(char[255]): void" style="text;html=1;strokeColor=none;fillColor=none;align=left;verticalAlign=top;spacingLeft=4;spacingRight=4;whiteSpace=wrap;overflow=hidden;rotatable=0;points=[[0,0.5],[1,0.5]];portConstraint=eastwest;labelBackgroundColor=none;rounded=1;" parent="PtKEEvkuK-J1Ukp3apgT-94" vertex="1">
          <mxGeometry y="154" width="280" height="30" as="geometry" />
        </mxCell>
        <mxCell id="PtKEEvkuK-J1Ukp3apgT-100" value="+ ChangeAge(int): void&amp;nbsp;" style="text;html=1;strokeColor=none;fillColor=none;align=left;verticalAlign=top;spacingLeft=4;spacingRight=4;whiteSpace=wrap;overflow=hidden;rotatable=0;points=[[0,0.5],[1,0.5]];portConstraint=eastwest;labelBackgroundColor=none;rounded=1;" parent="PtKEEvkuK-J1Ukp3apgT-94" vertex="1">
          <mxGeometry y="184" width="280" height="30" as="geometry" />
        </mxCell>
        <mxCell id="PtKEEvkuK-J1Ukp3apgT-101" value="+ Hide/ShowLikes: Boolean&amp;nbsp;" style="text;html=1;strokeColor=none;fillColor=none;align=left;verticalAlign=top;spacingLeft=4;spacingRight=4;whiteSpace=wrap;overflow=hidden;rotatable=0;points=[[0,0.5],[1,0.5]];portConstraint=eastwest;labelBackgroundColor=none;rounded=1;" parent="PtKEEvkuK-J1Ukp3apgT-94" vertex="1">
          <mxGeometry y="214" width="280" height="30" as="geometry" />
        </mxCell>
        <mxCell id="PtKEEvkuK-J1Ukp3apgT-104" value="+ EmbedSoicalLink(Links): void&amp;nbsp;" style="text;html=1;strokeColor=none;fillColor=none;align=left;verticalAlign=top;spacingLeft=4;spacingRight=4;whiteSpace=wrap;overflow=hidden;rotatable=0;points=[[0,0.5],[1,0.5]];portConstraint=eastwest;labelBackgroundColor=none;rounded=1;" parent="PtKEEvkuK-J1Ukp3apgT-94" vertex="1">
          <mxGeometry y="244" width="280" height="30" as="geometry" />
        </mxCell>
        <mxCell id="PtKEEvkuK-J1Ukp3apgT-105" value="PrivateInfo" style="swimlane;html=1;fontStyle=1;align=center;verticalAlign=top;childLayout=stackLayout;horizontal=1;startSize=26;horizontalStack=0;resizeParent=1;resizeLast=0;collapsible=1;marginBottom=0;swimlaneFillColor=#ffffff;rounded=1;shadow=0;comic=0;labelBackgroundColor=none;strokeWidth=1;fillColor=none;fontFamily=Verdana;fontSize=12;" parent="1" vertex="1">
          <mxGeometry x="1250" y="-370" width="230" height="290" as="geometry" />
        </mxCell>
        <mxCell id="PtKEEvkuK-J1Ukp3apgT-106" value="email: char[255]&amp;nbsp;" style="text;html=1;strokeColor=none;fillColor=none;align=left;verticalAlign=top;spacingLeft=4;spacingRight=4;whiteSpace=wrap;overflow=hidden;rotatable=0;points=[[0,0.5],[1,0.5]];portConstraint=eastwest;labelBackgroundColor=none;rounded=1;" parent="PtKEEvkuK-J1Ukp3apgT-105" vertex="1">
          <mxGeometry y="26" width="230" height="30" as="geometry" />
        </mxCell>
        <mxCell id="PtKEEvkuK-J1Ukp3apgT-107" value="phone: char[255]" style="text;html=1;strokeColor=none;fillColor=none;align=left;verticalAlign=top;spacingLeft=4;spacingRight=4;whiteSpace=wrap;overflow=hidden;rotatable=0;points=[[0,0.5],[1,0.5]];portConstraint=eastwest;labelBackgroundColor=none;rounded=1;" parent="PtKEEvkuK-J1Ukp3apgT-105" vertex="1">
          <mxGeometry y="56" width="230" height="30" as="geometry" />
        </mxCell>
        <mxCell id="PtKEEvkuK-J1Ukp3apgT-108" value="healthStatus: HealthStatus" style="text;html=1;strokeColor=none;fillColor=none;align=left;verticalAlign=top;spacingLeft=4;spacingRight=4;whiteSpace=wrap;overflow=hidden;rotatable=0;points=[[0,0.5],[1,0.5]];portConstraint=eastwest;labelBackgroundColor=none;rounded=1;" parent="PtKEEvkuK-J1Ukp3apgT-105" vertex="1">
          <mxGeometry y="86" width="230" height="30" as="geometry" />
        </mxCell>
        <mxCell id="PtKEEvkuK-J1Ukp3apgT-109" value="Career: enum" style="text;html=1;strokeColor=none;fillColor=none;align=left;verticalAlign=top;spacingLeft=4;spacingRight=4;whiteSpace=wrap;overflow=hidden;rotatable=0;points=[[0,0.5],[1,0.5]];portConstraint=eastwest;labelBackgroundColor=none;rounded=1;" parent="PtKEEvkuK-J1Ukp3apgT-105" vertex="1">
          <mxGeometry y="116" width="230" height="30" as="geometry" />
        </mxCell>
        <mxCell id="PtKEEvkuK-J1Ukp3apgT-110" value="" style="line;html=1;strokeWidth=1;fillColor=none;align=left;verticalAlign=middle;spacingTop=-1;spacingLeft=3;spacingRight=3;rotatable=0;labelPosition=right;points=[];portConstraint=eastwest;labelBackgroundColor=none;rounded=1;" parent="PtKEEvkuK-J1Ukp3apgT-105" vertex="1">
          <mxGeometry y="146" width="230" height="8" as="geometry" />
        </mxCell>
        <mxCell id="PtKEEvkuK-J1Ukp3apgT-111" value="+ ChangeEmail(char[255]): void" style="text;html=1;strokeColor=none;fillColor=none;align=left;verticalAlign=top;spacingLeft=4;spacingRight=4;whiteSpace=wrap;overflow=hidden;rotatable=0;points=[[0,0.5],[1,0.5]];portConstraint=eastwest;labelBackgroundColor=none;rounded=1;" parent="PtKEEvkuK-J1Ukp3apgT-105" vertex="1">
          <mxGeometry y="154" width="230" height="30" as="geometry" />
        </mxCell>
        <mxCell id="PtKEEvkuK-J1Ukp3apgT-112" value="+ ChangePhone(char[255]): void&amp;nbsp;" style="text;html=1;strokeColor=none;fillColor=none;align=left;verticalAlign=top;spacingLeft=4;spacingRight=4;whiteSpace=wrap;overflow=hidden;rotatable=0;points=[[0,0.5],[1,0.5]];portConstraint=eastwest;labelBackgroundColor=none;rounded=1;" parent="PtKEEvkuK-J1Ukp3apgT-105" vertex="1">
          <mxGeometry y="184" width="230" height="30" as="geometry" />
        </mxCell>
        <mxCell id="PtKEEvkuK-J1Ukp3apgT-113" value="+ ChangeCareer(enum): void&amp;nbsp;" style="text;html=1;strokeColor=none;fillColor=none;align=left;verticalAlign=top;spacingLeft=4;spacingRight=4;whiteSpace=wrap;overflow=hidden;rotatable=0;points=[[0,0.5],[1,0.5]];portConstraint=eastwest;labelBackgroundColor=none;rounded=1;" parent="PtKEEvkuK-J1Ukp3apgT-105" vertex="1">
          <mxGeometry y="214" width="230" height="30" as="geometry" />
        </mxCell>
        <mxCell id="PtKEEvkuK-J1Ukp3apgT-114" value="+ viewStatus(): void" style="text;html=1;strokeColor=none;fillColor=none;align=left;verticalAlign=top;spacingLeft=4;spacingRight=4;whiteSpace=wrap;overflow=hidden;rotatable=0;points=[[0,0.5],[1,0.5]];portConstraint=eastwest;labelBackgroundColor=none;rounded=1;" parent="PtKEEvkuK-J1Ukp3apgT-105" vertex="1">
          <mxGeometry y="244" width="230" height="30" as="geometry" />
        </mxCell>
        <mxCell id="PtKEEvkuK-J1Ukp3apgT-128" value="Comment" style="swimlane;html=1;fontStyle=1;align=center;verticalAlign=top;childLayout=stackLayout;horizontal=1;startSize=26;horizontalStack=0;resizeParent=1;resizeLast=0;collapsible=1;marginBottom=0;swimlaneFillColor=#ffffff;rounded=1;shadow=0;comic=0;labelBackgroundColor=none;strokeWidth=1;fontFamily=Verdana;fontSize=12;" parent="1" vertex="1">
          <mxGeometry x="1190" y="20" width="150" height="154" as="geometry" />
        </mxCell>
        <mxCell id="PtKEEvkuK-J1Ukp3apgT-142" value="_ID_comment: int" style="text;html=1;strokeColor=none;fillColor=none;align=left;verticalAlign=top;spacingLeft=4;spacingRight=4;whiteSpace=wrap;overflow=hidden;rotatable=0;points=[[0,0.5],[1,0.5]];portConstraint=eastwest;labelBackgroundColor=none;rounded=1;" parent="PtKEEvkuK-J1Ukp3apgT-128" vertex="1">
          <mxGeometry y="26" width="150" height="30" as="geometry" />
        </mxCell>
        <mxCell id="PtKEEvkuK-J1Ukp3apgT-134" value="replies: Comment" style="text;html=1;strokeColor=none;fillColor=none;align=left;verticalAlign=top;spacingLeft=4;spacingRight=4;whiteSpace=wrap;overflow=hidden;rotatable=0;points=[[0,0.5],[1,0.5]];portConstraint=eastwest;labelBackgroundColor=none;rounded=1;" parent="PtKEEvkuK-J1Ukp3apgT-128" vertex="1">
          <mxGeometry y="56" width="150" height="30" as="geometry" />
        </mxCell>
        <mxCell id="PtKEEvkuK-J1Ukp3apgT-135" value="" style="line;html=1;strokeWidth=1;fillColor=none;align=left;verticalAlign=middle;spacingTop=-1;spacingLeft=3;spacingRight=3;rotatable=0;labelPosition=right;points=[];portConstraint=eastwest;labelBackgroundColor=none;rounded=1;" parent="PtKEEvkuK-J1Ukp3apgT-128" vertex="1">
          <mxGeometry y="86" width="150" height="8" as="geometry" />
        </mxCell>
        <mxCell id="PtKEEvkuK-J1Ukp3apgT-136" value="+ EditPost(): void" style="text;html=1;strokeColor=none;fillColor=none;align=left;verticalAlign=top;spacingLeft=4;spacingRight=4;whiteSpace=wrap;overflow=hidden;rotatable=0;points=[[0,0.5],[1,0.5]];portConstraint=eastwest;labelBackgroundColor=none;rounded=1;" parent="PtKEEvkuK-J1Ukp3apgT-128" vertex="1">
          <mxGeometry y="94" width="150" height="30" as="geometry" />
        </mxCell>
        <mxCell id="PtKEEvkuK-J1Ukp3apgT-159" value="+ DisplayCommet() hmtl" style="text;html=1;strokeColor=#82b366;fillColor=#d5e8d4;align=left;verticalAlign=top;spacingLeft=4;spacingRight=4;whiteSpace=wrap;overflow=hidden;rotatable=0;points=[[0,0.5],[1,0.5]];portConstraint=eastwest;labelBackgroundColor=none;rounded=1;" parent="PtKEEvkuK-J1Ukp3apgT-128" vertex="1">
          <mxGeometry y="124" width="150" height="30" as="geometry" />
        </mxCell>
        <mxCell id="PtKEEvkuK-J1Ukp3apgT-143" style="edgeStyle=orthogonalEdgeStyle;rounded=1;orthogonalLoop=1;jettySize=auto;html=1;entryX=0.018;entryY=0.097;entryDx=0;entryDy=0;entryPerimeter=0;" parent="1" source="78961159f06e98e8-49" target="PtKEEvkuK-J1Ukp3apgT-128" edge="1">
          <mxGeometry relative="1" as="geometry" />
        </mxCell>
        <mxCell id="PtKEEvkuK-J1Ukp3apgT-145" value="Post" style="swimlane;html=1;fontStyle=1;align=center;verticalAlign=top;childLayout=stackLayout;horizontal=1;startSize=26;horizontalStack=0;resizeParent=1;resizeLast=0;collapsible=1;marginBottom=0;swimlaneFillColor=#ffffff;rounded=1;shadow=0;comic=0;labelBackgroundColor=none;strokeWidth=1;fontFamily=Verdana;fontSize=12;" parent="1" vertex="1">
          <mxGeometry x="1190" y="180" width="180" height="184" as="geometry" />
        </mxCell>
        <mxCell id="PtKEEvkuK-J1Ukp3apgT-146" value="_ID_post: int" style="text;html=1;strokeColor=none;fillColor=none;align=left;verticalAlign=top;spacingLeft=4;spacingRight=4;whiteSpace=wrap;overflow=hidden;rotatable=0;points=[[0,0.5],[1,0.5]];portConstraint=eastwest;labelBackgroundColor=none;rounded=1;" parent="PtKEEvkuK-J1Ukp3apgT-145" vertex="1">
          <mxGeometry y="26" width="180" height="30" as="geometry" />
        </mxCell>
        <mxCell id="PtKEEvkuK-J1Ukp3apgT-147" value="comments: Array of Comment" style="text;html=1;strokeColor=none;fillColor=none;align=left;verticalAlign=top;spacingLeft=4;spacingRight=4;whiteSpace=wrap;overflow=hidden;rotatable=0;points=[[0,0.5],[1,0.5]];portConstraint=eastwest;labelBackgroundColor=none;rounded=1;" parent="PtKEEvkuK-J1Ukp3apgT-145" vertex="1">
          <mxGeometry y="56" width="180" height="30" as="geometry" />
        </mxCell>
        <mxCell id="PtKEEvkuK-J1Ukp3apgT-160" value="contents: plainText" style="text;html=1;strokeColor=none;fillColor=none;align=left;verticalAlign=top;spacingLeft=4;spacingRight=4;whiteSpace=wrap;overflow=hidden;rotatable=0;points=[[0,0.5],[1,0.5]];portConstraint=eastwest;labelBackgroundColor=none;rounded=1;" parent="PtKEEvkuK-J1Ukp3apgT-145" vertex="1">
          <mxGeometry y="86" width="180" height="30" as="geometry" />
        </mxCell>
        <mxCell id="PtKEEvkuK-J1Ukp3apgT-167" value="" style="line;html=1;strokeWidth=1;fillColor=none;align=left;verticalAlign=middle;spacingTop=-1;spacingLeft=3;spacingRight=3;rotatable=0;labelPosition=right;points=[];portConstraint=eastwest;labelBackgroundColor=none;rounded=1;" parent="PtKEEvkuK-J1Ukp3apgT-145" vertex="1">
          <mxGeometry y="116" width="180" height="8" as="geometry" />
        </mxCell>
        <mxCell id="PtKEEvkuK-J1Ukp3apgT-168" value="DisplayPost(): html" style="text;html=1;strokeColor=#82b366;fillColor=#d5e8d4;align=left;verticalAlign=top;spacingLeft=4;spacingRight=4;whiteSpace=wrap;overflow=hidden;rotatable=0;points=[[0,0.5],[1,0.5]];portConstraint=eastwest;labelBackgroundColor=none;rounded=1;" parent="PtKEEvkuK-J1Ukp3apgT-145" vertex="1">
          <mxGeometry y="124" width="180" height="30" as="geometry" />
        </mxCell>
        <mxCell id="PtKEEvkuK-J1Ukp3apgT-172" value="EditPost(): html" style="text;html=1;strokeColor=none;fillColor=none;align=left;verticalAlign=top;spacingLeft=4;spacingRight=4;whiteSpace=wrap;overflow=hidden;rotatable=0;points=[[0,0.5],[1,0.5]];portConstraint=eastwest;labelBackgroundColor=none;rounded=1;" parent="PtKEEvkuK-J1Ukp3apgT-145" vertex="1">
          <mxGeometry y="154" width="180" height="30" as="geometry" />
        </mxCell>
        <mxCell id="PtKEEvkuK-J1Ukp3apgT-153" style="edgeStyle=orthogonalEdgeStyle;rounded=1;orthogonalLoop=1;jettySize=auto;html=1;entryX=0;entryY=0.5;entryDx=0;entryDy=0;" parent="1" source="78961159f06e98e8-49" target="PtKEEvkuK-J1Ukp3apgT-146" edge="1">
          <mxGeometry relative="1" as="geometry" />
        </mxCell>
        <mxCell id="PtKEEvkuK-J1Ukp3apgT-154" value="Article" style="swimlane;html=1;fontStyle=1;align=center;verticalAlign=top;childLayout=stackLayout;horizontal=1;startSize=26;horizontalStack=0;resizeParent=1;resizeLast=0;collapsible=1;marginBottom=0;swimlaneFillColor=#ffffff;rounded=1;shadow=0;comic=0;labelBackgroundColor=none;strokeWidth=1;fontFamily=Verdana;fontSize=12;" parent="1" vertex="1">
          <mxGeometry x="1190" y="380" width="150" height="154" as="geometry" />
        </mxCell>
        <mxCell id="PtKEEvkuK-J1Ukp3apgT-155" value="_ID_comment: int" style="text;html=1;strokeColor=none;fillColor=none;align=left;verticalAlign=top;spacingLeft=4;spacingRight=4;whiteSpace=wrap;overflow=hidden;rotatable=0;points=[[0,0.5],[1,0.5]];portConstraint=eastwest;labelBackgroundColor=none;rounded=1;" parent="PtKEEvkuK-J1Ukp3apgT-154" vertex="1">
          <mxGeometry y="26" width="150" height="30" as="geometry" />
        </mxCell>
        <mxCell id="PtKEEvkuK-J1Ukp3apgT-156" value="replies: Comment" style="text;html=1;strokeColor=none;fillColor=none;align=left;verticalAlign=top;spacingLeft=4;spacingRight=4;whiteSpace=wrap;overflow=hidden;rotatable=0;points=[[0,0.5],[1,0.5]];portConstraint=eastwest;labelBackgroundColor=none;rounded=1;" parent="PtKEEvkuK-J1Ukp3apgT-154" vertex="1">
          <mxGeometry y="56" width="150" height="30" as="geometry" />
        </mxCell>
        <mxCell id="PtKEEvkuK-J1Ukp3apgT-157" value="" style="line;html=1;strokeWidth=1;fillColor=none;align=left;verticalAlign=middle;spacingTop=-1;spacingLeft=3;spacingRight=3;rotatable=0;labelPosition=right;points=[];portConstraint=eastwest;labelBackgroundColor=none;rounded=1;" parent="PtKEEvkuK-J1Ukp3apgT-154" vertex="1">
          <mxGeometry y="86" width="150" height="8" as="geometry" />
        </mxCell>
        <mxCell id="PtKEEvkuK-J1Ukp3apgT-158" value="+ EditPost(): html" style="text;html=1;strokeColor=none;fillColor=none;align=left;verticalAlign=top;spacingLeft=4;spacingRight=4;whiteSpace=wrap;overflow=hidden;rotatable=0;points=[[0,0.5],[1,0.5]];portConstraint=eastwest;labelBackgroundColor=none;rounded=1;" parent="PtKEEvkuK-J1Ukp3apgT-154" vertex="1">
          <mxGeometry y="94" width="150" height="30" as="geometry" />
        </mxCell>
        <mxCell id="PtKEEvkuK-J1Ukp3apgT-171" value="+ DisplayArticle(): html" style="text;html=1;strokeColor=#82b366;fillColor=#d5e8d4;align=left;verticalAlign=top;spacingLeft=4;spacingRight=4;whiteSpace=wrap;overflow=hidden;rotatable=0;points=[[0,0.5],[1,0.5]];portConstraint=eastwest;labelBackgroundColor=none;rounded=1;" parent="PtKEEvkuK-J1Ukp3apgT-154" vertex="1">
          <mxGeometry y="124" width="150" height="30" as="geometry" />
        </mxCell>
        <mxCell id="PtKEEvkuK-J1Ukp3apgT-163" style="edgeStyle=orthogonalEdgeStyle;rounded=1;orthogonalLoop=1;jettySize=auto;html=1;exitX=1;exitY=0.5;exitDx=0;exitDy=0;entryX=-0.003;entryY=0.13;entryDx=0;entryDy=0;entryPerimeter=0;" parent="1" source="78961159f06e98e8-49" target="PtKEEvkuK-J1Ukp3apgT-154" edge="1">
          <mxGeometry relative="1" as="geometry" />
        </mxCell>
        <mxCell id="PtKEEvkuK-J1Ukp3apgT-173" value="&amp;lt;IDisplay&amp;gt;" style="swimlane;html=1;fontStyle=1;align=center;verticalAlign=top;childLayout=stackLayout;horizontal=1;startSize=26;horizontalStack=0;resizeParent=1;resizeLast=0;collapsible=1;marginBottom=0;swimlaneFillColor=#ffffff;rounded=1;shadow=0;comic=0;labelBackgroundColor=none;strokeWidth=1;fontFamily=Verdana;fontSize=12;fillColor=#d5e8d4;strokeColor=#82b366;" parent="1" vertex="1">
          <mxGeometry x="890" y="420" width="150" height="154" as="geometry" />
        </mxCell>
        <mxCell id="PtKEEvkuK-J1Ukp3apgT-179" value="Dish Instruction" style="swimlane;html=1;fontStyle=1;align=center;verticalAlign=top;childLayout=stackLayout;horizontal=1;startSize=26;horizontalStack=0;resizeParent=1;resizeLast=0;collapsible=1;marginBottom=0;swimlaneFillColor=#ffffff;rounded=1;shadow=0;comic=0;labelBackgroundColor=none;strokeWidth=1;fillColor=none;fontFamily=Verdana;fontSize=12;" parent="1" vertex="1">
          <mxGeometry x="810" y="-880" width="230" height="250" as="geometry" />
        </mxCell>
        <mxCell id="PtKEEvkuK-J1Ukp3apgT-180" value="name: char[255]&amp;nbsp;" style="text;html=1;strokeColor=none;fillColor=none;align=left;verticalAlign=top;spacingLeft=4;spacingRight=4;whiteSpace=wrap;overflow=hidden;rotatable=0;points=[[0,0.5],[1,0.5]];portConstraint=eastwest;labelBackgroundColor=none;rounded=1;" parent="PtKEEvkuK-J1Ukp3apgT-179" vertex="1">
          <mxGeometry y="26" width="230" height="30" as="geometry" />
        </mxCell>
        <mxCell id="PtKEEvkuK-J1Ukp3apgT-181" value="description: PlainText" style="text;html=1;strokeColor=none;fillColor=none;align=left;verticalAlign=top;spacingLeft=4;spacingRight=4;whiteSpace=wrap;overflow=hidden;rotatable=0;points=[[0,0.5],[1,0.5]];portConstraint=eastwest;labelBackgroundColor=none;rounded=1;" parent="PtKEEvkuK-J1Ukp3apgT-179" vertex="1">
          <mxGeometry y="56" width="230" height="30" as="geometry" />
        </mxCell>
        <mxCell id="PtKEEvkuK-J1Ukp3apgT-183" value="recommendFor: Career" style="text;html=1;strokeColor=none;fillColor=none;align=left;verticalAlign=top;spacingLeft=4;spacingRight=4;whiteSpace=wrap;overflow=hidden;rotatable=0;points=[[0,0.5],[1,0.5]];portConstraint=eastwest;labelBackgroundColor=none;rounded=1;" parent="PtKEEvkuK-J1Ukp3apgT-179" vertex="1">
          <mxGeometry y="86" width="230" height="30" as="geometry" />
        </mxCell>
        <mxCell id="PtKEEvkuK-J1Ukp3apgT-190" value="recipe: Recipe" style="text;html=1;strokeColor=none;fillColor=none;align=left;verticalAlign=top;spacingLeft=4;spacingRight=4;whiteSpace=wrap;overflow=hidden;rotatable=0;points=[[0,0.5],[1,0.5]];portConstraint=eastwest;labelBackgroundColor=none;rounded=1;" parent="PtKEEvkuK-J1Ukp3apgT-179" vertex="1">
          <mxGeometry y="116" width="230" height="30" as="geometry" />
        </mxCell>
        <mxCell id="PtKEEvkuK-J1Ukp3apgT-184" value="" style="line;html=1;strokeWidth=1;fillColor=none;align=left;verticalAlign=middle;spacingTop=-1;spacingLeft=3;spacingRight=3;rotatable=0;labelPosition=right;points=[];portConstraint=eastwest;labelBackgroundColor=none;rounded=1;" parent="PtKEEvkuK-J1Ukp3apgT-179" vertex="1">
          <mxGeometry y="146" width="230" height="8" as="geometry" />
        </mxCell>
        <mxCell id="PtKEEvkuK-J1Ukp3apgT-189" value="+ DeleteDish(): void" style="text;html=1;strokeColor=none;fillColor=none;align=left;verticalAlign=top;spacingLeft=4;spacingRight=4;whiteSpace=wrap;overflow=hidden;rotatable=0;points=[[0,0.5],[1,0.5]];portConstraint=eastwest;labelBackgroundColor=none;rounded=1;" parent="PtKEEvkuK-J1Ukp3apgT-179" vertex="1">
          <mxGeometry y="154" width="230" height="30" as="geometry" />
        </mxCell>
        <mxCell id="PtKEEvkuK-J1Ukp3apgT-192" value="+ UpdateDishInfo(): void" style="text;html=1;strokeColor=none;fillColor=none;align=left;verticalAlign=top;spacingLeft=4;spacingRight=4;whiteSpace=wrap;overflow=hidden;rotatable=0;points=[[0,0.5],[1,0.5]];portConstraint=eastwest;labelBackgroundColor=none;rounded=1;" parent="PtKEEvkuK-J1Ukp3apgT-179" vertex="1">
          <mxGeometry y="184" width="230" height="30" as="geometry" />
        </mxCell>
        <mxCell id="PtKEEvkuK-J1Ukp3apgT-213" value="+ AddNewRecipe(): void" style="text;html=1;strokeColor=none;fillColor=none;align=left;verticalAlign=top;spacingLeft=4;spacingRight=4;whiteSpace=wrap;overflow=hidden;rotatable=0;points=[[0,0.5],[1,0.5]];portConstraint=eastwest;labelBackgroundColor=none;rounded=1;" parent="PtKEEvkuK-J1Ukp3apgT-179" vertex="1">
          <mxGeometry y="214" width="230" height="30" as="geometry" />
        </mxCell>
        <mxCell id="PtKEEvkuK-J1Ukp3apgT-203" value="Recipe" style="swimlane;html=1;fontStyle=1;align=center;verticalAlign=top;childLayout=stackLayout;horizontal=1;startSize=26;horizontalStack=0;resizeParent=1;resizeLast=0;collapsible=1;marginBottom=0;swimlaneFillColor=#ffffff;rounded=1;shadow=0;comic=0;labelBackgroundColor=none;strokeWidth=1;fillColor=none;fontFamily=Verdana;fontSize=12;" parent="1" vertex="1">
          <mxGeometry x="1060" y="-880" width="330" height="214" as="geometry" />
        </mxCell>
        <mxCell id="PtKEEvkuK-J1Ukp3apgT-204" value="_ID_recipe: int&amp;nbsp;" style="text;html=1;strokeColor=none;fillColor=none;align=left;verticalAlign=top;spacingLeft=4;spacingRight=4;whiteSpace=wrap;overflow=hidden;rotatable=0;points=[[0,0.5],[1,0.5]];portConstraint=eastwest;labelBackgroundColor=none;rounded=1;" parent="PtKEEvkuK-J1Ukp3apgT-203" vertex="1">
          <mxGeometry y="26" width="330" height="30" as="geometry" />
        </mxCell>
        <mxCell id="PtKEEvkuK-J1Ukp3apgT-205" value="name: char[255]" style="text;html=1;strokeColor=none;fillColor=none;align=left;verticalAlign=top;spacingLeft=4;spacingRight=4;whiteSpace=wrap;overflow=hidden;rotatable=0;points=[[0,0.5],[1,0.5]];portConstraint=eastwest;labelBackgroundColor=none;rounded=1;" parent="PtKEEvkuK-J1Ukp3apgT-203" vertex="1">
          <mxGeometry y="56" width="330" height="30" as="geometry" />
        </mxCell>
        <mxCell id="PtKEEvkuK-J1Ukp3apgT-207" value="ingredients: Array of Tuple&amp;lt;Ingredients, int, Unit&amp;gt;" style="text;html=1;strokeColor=none;fillColor=none;align=left;verticalAlign=top;spacingLeft=4;spacingRight=4;whiteSpace=wrap;overflow=hidden;rotatable=0;points=[[0,0.5],[1,0.5]];portConstraint=eastwest;labelBackgroundColor=none;rounded=1;" parent="PtKEEvkuK-J1Ukp3apgT-203" vertex="1">
          <mxGeometry y="86" width="330" height="30" as="geometry" />
        </mxCell>
        <mxCell id="PtKEEvkuK-J1Ukp3apgT-208" value="nutritionContents: Array of Pair&amp;lt;NutritionType, float, Unit&amp;gt;" style="text;html=1;strokeColor=none;fillColor=none;align=left;verticalAlign=top;spacingLeft=4;spacingRight=4;whiteSpace=wrap;overflow=hidden;rotatable=0;points=[[0,0.5],[1,0.5]];portConstraint=eastwest;labelBackgroundColor=none;rounded=1;" parent="PtKEEvkuK-J1Ukp3apgT-203" vertex="1">
          <mxGeometry y="116" width="330" height="30" as="geometry" />
        </mxCell>
        <mxCell id="PtKEEvkuK-J1Ukp3apgT-209" value="" style="line;html=1;strokeWidth=1;fillColor=none;align=left;verticalAlign=middle;spacingTop=-1;spacingLeft=3;spacingRight=3;rotatable=0;labelPosition=right;points=[];portConstraint=eastwest;labelBackgroundColor=none;rounded=1;" parent="PtKEEvkuK-J1Ukp3apgT-203" vertex="1">
          <mxGeometry y="146" width="330" height="8" as="geometry" />
        </mxCell>
        <mxCell id="PtKEEvkuK-J1Ukp3apgT-210" value="+ UpdateRecipe(): void" style="text;html=1;strokeColor=none;fillColor=none;align=left;verticalAlign=top;spacingLeft=4;spacingRight=4;whiteSpace=wrap;overflow=hidden;rotatable=0;points=[[0,0.5],[1,0.5]];portConstraint=eastwest;labelBackgroundColor=none;rounded=1;" parent="PtKEEvkuK-J1Ukp3apgT-203" vertex="1">
          <mxGeometry y="154" width="330" height="30" as="geometry" />
        </mxCell>
        <mxCell id="PtKEEvkuK-J1Ukp3apgT-211" value="+ DeleteRecipe(): void" style="text;html=1;strokeColor=none;fillColor=none;align=left;verticalAlign=top;spacingLeft=4;spacingRight=4;whiteSpace=wrap;overflow=hidden;rotatable=0;points=[[0,0.5],[1,0.5]];portConstraint=eastwest;labelBackgroundColor=none;rounded=1;" parent="PtKEEvkuK-J1Ukp3apgT-203" vertex="1">
          <mxGeometry y="184" width="330" height="30" as="geometry" />
        </mxCell>
        <mxCell id="PtKEEvkuK-J1Ukp3apgT-216" value="Nutrition Type" style="swimlane;html=1;fontStyle=1;align=center;verticalAlign=top;childLayout=stackLayout;horizontal=1;startSize=26;horizontalStack=0;resizeParent=1;resizeLast=0;collapsible=1;marginBottom=0;swimlaneFillColor=#ffffff;rounded=1;shadow=0;comic=0;labelBackgroundColor=none;strokeWidth=1;fillColor=#fff2cc;fontFamily=Verdana;fontSize=12;strokeColor=#d6b656;" parent="1" vertex="1">
          <mxGeometry x="810" y="-600" width="120" height="56" as="geometry" />
        </mxCell>
        <mxCell id="PtKEEvkuK-J1Ukp3apgT-217" value="Name: char[255]" style="text;html=1;strokeColor=none;fillColor=none;align=left;verticalAlign=top;spacingLeft=4;spacingRight=4;whiteSpace=wrap;overflow=hidden;rotatable=0;points=[[0,0.5],[1,0.5]];portConstraint=eastwest;labelBackgroundColor=none;rounded=1;" parent="PtKEEvkuK-J1Ukp3apgT-216" vertex="1">
          <mxGeometry y="26" width="120" height="30" as="geometry" />
        </mxCell>
        <mxCell id="PtKEEvkuK-J1Ukp3apgT-224" value="Career" style="swimlane;html=1;fontStyle=1;align=center;verticalAlign=top;childLayout=stackLayout;horizontal=1;startSize=26;horizontalStack=0;resizeParent=1;resizeLast=0;collapsible=1;marginBottom=0;swimlaneFillColor=#ffffff;rounded=1;shadow=0;comic=0;labelBackgroundColor=none;strokeWidth=1;fillColor=#fff2cc;fontFamily=Verdana;fontSize=12;strokeColor=#d6b656;" parent="1" vertex="1">
          <mxGeometry x="950" y="-600" width="120" height="56" as="geometry" />
        </mxCell>
        <mxCell id="PtKEEvkuK-J1Ukp3apgT-225" value="Name: char[255]" style="text;html=1;strokeColor=none;fillColor=none;align=left;verticalAlign=top;spacingLeft=4;spacingRight=4;whiteSpace=wrap;overflow=hidden;rotatable=0;points=[[0,0.5],[1,0.5]];portConstraint=eastwest;labelBackgroundColor=none;rounded=1;" parent="PtKEEvkuK-J1Ukp3apgT-224" vertex="1">
          <mxGeometry y="26" width="120" height="30" as="geometry" />
        </mxCell>
        <mxCell id="PtKEEvkuK-J1Ukp3apgT-226" value="AccessPrivilege" style="swimlane;html=1;fontStyle=1;align=center;verticalAlign=top;childLayout=stackLayout;horizontal=1;startSize=26;horizontalStack=0;resizeParent=1;resizeLast=0;collapsible=1;marginBottom=0;swimlaneFillColor=#ffffff;rounded=1;shadow=0;comic=0;labelBackgroundColor=none;strokeWidth=1;fillColor=#fff2cc;fontFamily=Verdana;fontSize=12;strokeColor=#d6b656;" parent="1" vertex="1">
          <mxGeometry x="1090" y="-600" width="120" height="56" as="geometry" />
        </mxCell>
        <mxCell id="PtKEEvkuK-J1Ukp3apgT-227" value="Name: char[255]" style="text;html=1;strokeColor=none;fillColor=none;align=left;verticalAlign=top;spacingLeft=4;spacingRight=4;whiteSpace=wrap;overflow=hidden;rotatable=0;points=[[0,0.5],[1,0.5]];portConstraint=eastwest;labelBackgroundColor=none;rounded=1;" parent="PtKEEvkuK-J1Ukp3apgT-226" vertex="1">
          <mxGeometry y="26" width="120" height="30" as="geometry" />
        </mxCell>
      </root>
    </mxGraphModel>
  </diagram>
  <diagram id="7etYaOjEG_0t1MdUkm-F" name="Page-2">
    <mxGraphModel dx="1723" dy="1957" grid="1" gridSize="10" guides="1" tooltips="1" connect="1" arrows="1" fold="1" page="1" pageScale="1" pageWidth="850" pageHeight="1100" math="0" shadow="0">
      <root>
        <mxCell id="0" />
        <mxCell id="1" parent="0" />
        <mxCell id="8QYSFQG-nEIOQ_LHecQk-1" value="Abstract Class Profile" style="swimlane;html=1;fontStyle=1;align=center;verticalAlign=top;childLayout=stackLayout;horizontal=1;startSize=26;horizontalStack=0;resizeParent=1;resizeLast=0;collapsible=1;marginBottom=0;swimlaneFillColor=#ffffff;rounded=1;shadow=0;comic=0;labelBackgroundColor=none;strokeWidth=1;fillColor=none;fontFamily=Verdana;fontSize=12;" parent="1" vertex="1">
          <mxGeometry x="1490" y="-990" width="230" height="230" as="geometry" />
        </mxCell>
        <mxCell id="8QYSFQG-nEIOQ_LHecQk-5" value="" style="line;html=1;strokeWidth=1;fillColor=none;align=left;verticalAlign=middle;spacingTop=-1;spacingLeft=3;spacingRight=3;rotatable=0;labelPosition=right;points=[];portConstraint=eastwest;labelBackgroundColor=none;rounded=1;" parent="8QYSFQG-nEIOQ_LHecQk-1" vertex="1">
          <mxGeometry y="26" width="230" height="8" as="geometry" />
        </mxCell>
        <mxCell id="6NspH14xoGmER104ILW--1" value="&amp;nbsp;@Override" style="text;html=1;strokeColor=none;fillColor=none;align=left;verticalAlign=top;spacingLeft=4;spacingRight=4;whiteSpace=wrap;overflow=hidden;rotatable=0;points=[[0,0.5],[1,0.5]];portConstraint=eastwest;labelBackgroundColor=none;rounded=1;" parent="8QYSFQG-nEIOQ_LHecQk-1" vertex="1">
          <mxGeometry y="34" width="230" height="30" as="geometry" />
        </mxCell>
        <mxCell id="8QYSFQG-nEIOQ_LHecQk-6" value="+ ChangeName()" style="text;html=1;strokeColor=none;fillColor=none;align=left;verticalAlign=top;spacingLeft=4;spacingRight=4;whiteSpace=wrap;overflow=hidden;rotatable=0;points=[[0,0.5],[1,0.5]];portConstraint=eastwest;labelBackgroundColor=none;rounded=1;" parent="8QYSFQG-nEIOQ_LHecQk-1" vertex="1">
          <mxGeometry y="64" width="230" height="30" as="geometry" />
        </mxCell>
        <mxCell id="8QYSFQG-nEIOQ_LHecQk-8" value="+ ChangeInfo()" style="text;html=1;strokeColor=none;fillColor=none;align=left;verticalAlign=top;spacingLeft=4;spacingRight=4;whiteSpace=wrap;overflow=hidden;rotatable=0;points=[[0,0.5],[1,0.5]];portConstraint=eastwest;labelBackgroundColor=none;rounded=1;" parent="8QYSFQG-nEIOQ_LHecQk-1" vertex="1">
          <mxGeometry y="94" width="230" height="30" as="geometry" />
        </mxCell>
        <mxCell id="8QYSFQG-nEIOQ_LHecQk-7" value="+ ChangeAvatar()" style="text;html=1;strokeColor=none;fillColor=none;align=left;verticalAlign=top;spacingLeft=4;spacingRight=4;whiteSpace=wrap;overflow=hidden;rotatable=0;points=[[0,0.5],[1,0.5]];portConstraint=eastwest;labelBackgroundColor=none;rounded=1;" parent="8QYSFQG-nEIOQ_LHecQk-1" vertex="1">
          <mxGeometry y="124" width="230" height="30" as="geometry" />
        </mxCell>
        <mxCell id="8QYSFQG-nEIOQ_LHecQk-9" value="Class User" style="swimlane;html=1;fontStyle=1;align=center;verticalAlign=top;childLayout=stackLayout;horizontal=1;startSize=26;horizontalStack=0;resizeParent=1;resizeLast=0;collapsible=1;marginBottom=0;swimlaneFillColor=#ffffff;rounded=1;shadow=0;comic=0;labelBackgroundColor=none;strokeWidth=1;fillColor=none;fontFamily=Verdana;fontSize=12;points=[[0,0,0,0,0],[0,0.25,0,0,0],[0,0.5,0,0,0],[0,0.75,0,0,0],[0,1,0,0,0],[0.25,0,0,0,0],[0.25,1,0,0,0],[0.5,0,0,0,0],[0.5,1,0,0,0],[0.75,0,0,0,0],[0.75,1,0,0,0],[1,0,0,0,0],[1,0.25,0,0,0],[1,0.5,0,0,0],[1,0.75,0,0,0],[1,1,0,0,0]];" parent="1" vertex="1">
          <mxGeometry x="920" y="-1010" width="220" height="200" as="geometry">
            <mxRectangle x="320" y="-370" width="100" height="30" as="alternateBounds" />
          </mxGeometry>
        </mxCell>
        <mxCell id="8QYSFQG-nEIOQ_LHecQk-10" value="constructor() and method of Base" style="text;html=1;strokeColor=none;fillColor=none;align=left;verticalAlign=top;spacingLeft=4;spacingRight=4;whiteSpace=wrap;overflow=hidden;rotatable=0;points=[[0,0.5],[1,0.5]];portConstraint=eastwest;labelBackgroundColor=none;rounded=1;" parent="8QYSFQG-nEIOQ_LHecQk-9" vertex="1">
          <mxGeometry y="26" width="220" height="30" as="geometry" />
        </mxCell>
        <mxCell id="8QYSFQG-nEIOQ_LHecQk-11" value="" style="line;html=1;strokeWidth=1;fillColor=none;align=left;verticalAlign=middle;spacingTop=-1;spacingLeft=3;spacingRight=3;rotatable=0;labelPosition=right;points=[];portConstraint=eastwest;labelBackgroundColor=none;rounded=1;" parent="8QYSFQG-nEIOQ_LHecQk-9" vertex="1">
          <mxGeometry y="56" width="220" height="8" as="geometry" />
        </mxCell>
        <mxCell id="8QYSFQG-nEIOQ_LHecQk-12" value="&lt;div&gt;&amp;nbsp;Class Account&lt;/div&gt;&lt;div&gt;&lt;br&gt;&lt;/div&gt;&lt;div&gt;&lt;span style=&quot;white-space: pre;&quot;&gt;&#x9;&lt;/span&gt;Origin = User;&lt;/div&gt;&lt;div&gt;&lt;br&gt;&lt;/div&gt;" style="text;html=1;strokeColor=none;fillColor=none;align=left;verticalAlign=top;spacingLeft=4;spacingRight=4;whiteSpace=wrap;overflow=hidden;rotatable=0;points=[[0,0.5],[1,0.5]];portConstraint=eastwest;labelBackgroundColor=none;rounded=1;" parent="8QYSFQG-nEIOQ_LHecQk-9" vertex="1">
          <mxGeometry y="64" width="220" height="20" as="geometry" />
        </mxCell>
        <mxCell id="8QYSFQG-nEIOQ_LHecQk-13" value="&lt;div&gt;&lt;span style=&quot;white-space: pre;&quot;&gt;&#x9;Base&lt;/span&gt; = User&lt;/div&gt;&lt;div&gt;&lt;br&gt;&lt;/div&gt;&lt;div&gt;&lt;br&gt;&lt;/div&gt;" style="text;html=1;strokeColor=none;fillColor=none;align=left;verticalAlign=top;spacingLeft=4;spacingRight=4;whiteSpace=wrap;overflow=hidden;rotatable=0;points=[[0,0.5],[1,0.5]];portConstraint=eastwest;labelBackgroundColor=none;rounded=1;" parent="8QYSFQG-nEIOQ_LHecQk-9" vertex="1">
          <mxGeometry y="84" width="220" height="26" as="geometry" />
        </mxCell>
        <mxCell id="8QYSFQG-nEIOQ_LHecQk-14" value="&lt;div&gt;&lt;span style=&quot;white-space: pre;&quot;&gt;&#x9;getAccount() =&amp;gt; new Base()&lt;/span&gt;&lt;/div&gt;&lt;div&gt;&lt;span style=&quot;white-space: pre;&quot;&gt;&lt;br&gt;&lt;/span&gt;&lt;/div&gt;&lt;div&gt;&lt;br&gt;&lt;/div&gt;&lt;div&gt;&lt;br&gt;&lt;/div&gt;" style="text;html=1;strokeColor=none;fillColor=none;align=left;verticalAlign=top;spacingLeft=4;spacingRight=4;whiteSpace=wrap;overflow=hidden;rotatable=0;points=[[0,0.5],[1,0.5]];portConstraint=eastwest;labelBackgroundColor=none;rounded=1;" parent="8QYSFQG-nEIOQ_LHecQk-9" vertex="1">
          <mxGeometry y="110" width="220" height="26" as="geometry" />
        </mxCell>
        <mxCell id="8QYSFQG-nEIOQ_LHecQk-15" value="Class Adminstrators" style="swimlane;html=1;fontStyle=1;align=center;verticalAlign=top;childLayout=stackLayout;horizontal=1;startSize=26;horizontalStack=0;resizeParent=1;resizeLast=0;collapsible=1;marginBottom=0;swimlaneFillColor=#ffffff;rounded=1;shadow=0;comic=0;labelBackgroundColor=none;strokeWidth=1;fillColor=none;fontFamily=Verdana;fontSize=12;rotation=0;" parent="1" vertex="1">
          <mxGeometry x="190" y="-750" width="230" height="152" as="geometry" />
        </mxCell>
        <mxCell id="8QYSFQG-nEIOQ_LHecQk-17" value="" style="line;html=1;strokeWidth=1;fillColor=none;align=left;verticalAlign=middle;spacingTop=-1;spacingLeft=3;spacingRight=3;rotatable=0;labelPosition=right;points=[];portConstraint=eastwest;labelBackgroundColor=none;rounded=1;rotation=0;" parent="8QYSFQG-nEIOQ_LHecQk-15" vertex="1">
          <mxGeometry y="26" width="230" height="8" as="geometry" />
        </mxCell>
        <mxCell id="8QYSFQG-nEIOQ_LHecQk-16" value="constructors () and Methods of Admin" style="text;html=1;strokeColor=none;fillColor=none;align=left;verticalAlign=top;spacingLeft=4;spacingRight=4;whiteSpace=wrap;overflow=hidden;rotatable=0;points=[[0,0.5],[1,0.5]];portConstraint=eastwest;labelBackgroundColor=none;rounded=1;rotation=0;" parent="8QYSFQG-nEIOQ_LHecQk-15" vertex="1">
          <mxGeometry y="34" width="230" height="30" as="geometry" />
        </mxCell>
        <mxCell id="xr4bqTFnihBV5288vY2u-1" value="" style="line;html=1;strokeWidth=1;fillColor=none;align=left;verticalAlign=middle;spacingTop=-1;spacingLeft=3;spacingRight=3;rotatable=0;labelPosition=right;points=[];portConstraint=eastwest;labelBackgroundColor=none;rounded=1;" parent="8QYSFQG-nEIOQ_LHecQk-15" vertex="1">
          <mxGeometry y="64" width="230" height="8" as="geometry" />
        </mxCell>
        <mxCell id="8QYSFQG-nEIOQ_LHecQk-18" value="&amp;nbsp;Base = Adminstrators" style="text;html=1;strokeColor=none;fillColor=none;align=left;verticalAlign=top;spacingLeft=4;spacingRight=4;whiteSpace=wrap;overflow=hidden;rotatable=0;points=[[0,0.5],[1,0.5]];portConstraint=eastwest;labelBackgroundColor=none;rounded=1;rotation=0;" parent="8QYSFQG-nEIOQ_LHecQk-15" vertex="1">
          <mxGeometry y="72" width="230" height="30" as="geometry" />
        </mxCell>
        <mxCell id="Z3xM-oqiSJ57B4PCYbaf-37" style="edgeStyle=orthogonalEdgeStyle;rounded=0;orthogonalLoop=1;jettySize=auto;html=1;" parent="1" source="8QYSFQG-nEIOQ_LHecQk-19" target="8QYSFQG-nEIOQ_LHecQk-22" edge="1">
          <mxGeometry relative="1" as="geometry" />
        </mxCell>
        <mxCell id="Z3xM-oqiSJ57B4PCYbaf-38" style="edgeStyle=orthogonalEdgeStyle;rounded=0;orthogonalLoop=1;jettySize=auto;html=1;entryX=0.5;entryY=0;entryDx=0;entryDy=0;" parent="1" source="8QYSFQG-nEIOQ_LHecQk-19" target="8QYSFQG-nEIOQ_LHecQk-15" edge="1">
          <mxGeometry relative="1" as="geometry" />
        </mxCell>
        <mxCell id="8QYSFQG-nEIOQ_LHecQk-19" value="Extend" style="text;strokeColor=none;align=center;fillColor=none;html=1;verticalAlign=middle;whiteSpace=wrap;rounded=0;" parent="1" vertex="1">
          <mxGeometry x="470" y="-920" width="60" height="30" as="geometry" />
        </mxCell>
        <mxCell id="8QYSFQG-nEIOQ_LHecQk-22" value="Class Contributor" style="swimlane;html=1;fontStyle=1;align=center;verticalAlign=top;childLayout=stackLayout;horizontal=1;startSize=26;horizontalStack=0;resizeParent=1;resizeLast=0;collapsible=1;marginBottom=0;swimlaneFillColor=#ffffff;rounded=1;shadow=0;comic=0;labelBackgroundColor=none;strokeWidth=1;fillColor=none;fontFamily=Verdana;fontSize=12;" parent="1" vertex="1">
          <mxGeometry x="510" y="-740" width="245" height="107" as="geometry" />
        </mxCell>
        <mxCell id="8QYSFQG-nEIOQ_LHecQk-23" value="constructors () and Methods of Contribute" style="text;html=1;strokeColor=none;fillColor=none;align=left;verticalAlign=top;spacingLeft=4;spacingRight=4;whiteSpace=wrap;overflow=hidden;rotatable=0;points=[[0,0.5],[1,0.5]];portConstraint=eastwest;labelBackgroundColor=none;rounded=1;" parent="8QYSFQG-nEIOQ_LHecQk-22" vertex="1">
          <mxGeometry y="26" width="245" height="26" as="geometry" />
        </mxCell>
        <mxCell id="8QYSFQG-nEIOQ_LHecQk-24" value="" style="line;html=1;strokeWidth=1;fillColor=none;align=left;verticalAlign=middle;spacingTop=-1;spacingLeft=3;spacingRight=3;rotatable=0;labelPosition=right;points=[];portConstraint=eastwest;labelBackgroundColor=none;rounded=1;" parent="8QYSFQG-nEIOQ_LHecQk-22" vertex="1">
          <mxGeometry y="52" width="245" height="8" as="geometry" />
        </mxCell>
        <mxCell id="8QYSFQG-nEIOQ_LHecQk-25" value="Base = Contributor" style="text;html=1;strokeColor=none;fillColor=none;align=left;verticalAlign=top;spacingLeft=4;spacingRight=4;whiteSpace=wrap;overflow=hidden;rotatable=0;points=[[0,0.5],[1,0.5]];portConstraint=eastwest;labelBackgroundColor=none;rounded=1;" parent="8QYSFQG-nEIOQ_LHecQk-22" vertex="1">
          <mxGeometry y="60" width="245" height="26" as="geometry" />
        </mxCell>
        <mxCell id="8QYSFQG-nEIOQ_LHecQk-29" style="edgeStyle=orthogonalEdgeStyle;rounded=0;orthogonalLoop=1;jettySize=auto;html=1;entryX=-0.013;entryY=0.366;entryDx=0;entryDy=0;entryPerimeter=0;" parent="1" source="8QYSFQG-nEIOQ_LHecQk-14" target="8QYSFQG-nEIOQ_LHecQk-6" edge="1">
          <mxGeometry relative="1" as="geometry" />
        </mxCell>
        <mxCell id="Z3xM-oqiSJ57B4PCYbaf-2" value="Class PublicInfo" style="swimlane;html=1;fontStyle=1;align=center;verticalAlign=top;childLayout=stackLayout;horizontal=1;startSize=26;horizontalStack=0;resizeParent=1;resizeLast=0;collapsible=1;marginBottom=0;swimlaneFillColor=#ffffff;rounded=1;shadow=0;comic=0;labelBackgroundColor=none;strokeWidth=1;fillColor=none;fontFamily=Verdana;fontSize=12;" parent="1" vertex="1">
          <mxGeometry x="1880" y="-750" width="280" height="320" as="geometry" />
        </mxCell>
        <mxCell id="Z3xM-oqiSJ57B4PCYbaf-3" value="constructor() and method of Public" style="text;html=1;strokeColor=none;fillColor=none;align=left;verticalAlign=top;spacingLeft=4;spacingRight=4;whiteSpace=wrap;overflow=hidden;rotatable=0;points=[[0,0.5],[1,0.5]];portConstraint=eastwest;labelBackgroundColor=none;rounded=1;" parent="Z3xM-oqiSJ57B4PCYbaf-2" vertex="1">
          <mxGeometry y="26" width="280" height="30" as="geometry" />
        </mxCell>
        <mxCell id="Z3xM-oqiSJ57B4PCYbaf-7" value="" style="line;html=1;strokeWidth=1;fillColor=none;align=left;verticalAlign=middle;spacingTop=-1;spacingLeft=3;spacingRight=3;rotatable=0;labelPosition=right;points=[];portConstraint=eastwest;labelBackgroundColor=none;rounded=1;" parent="Z3xM-oqiSJ57B4PCYbaf-2" vertex="1">
          <mxGeometry y="56" width="280" height="8" as="geometry" />
        </mxCell>
        <mxCell id="Z3xM-oqiSJ57B4PCYbaf-29" value="@Overide" style="text;html=1;strokeColor=none;fillColor=none;align=left;verticalAlign=top;spacingLeft=4;spacingRight=4;whiteSpace=wrap;overflow=hidden;rotatable=0;points=[[0,0.5],[1,0.5]];portConstraint=eastwest;labelBackgroundColor=none;rounded=1;" parent="Z3xM-oqiSJ57B4PCYbaf-2" vertex="1">
          <mxGeometry y="64" width="280" height="30" as="geometry" />
        </mxCell>
        <mxCell id="Z3xM-oqiSJ57B4PCYbaf-8" value="+ ChangeName()" style="text;html=1;strokeColor=none;fillColor=none;align=left;verticalAlign=top;spacingLeft=4;spacingRight=4;whiteSpace=wrap;overflow=hidden;rotatable=0;points=[[0,0.5],[1,0.5]];portConstraint=eastwest;labelBackgroundColor=none;rounded=1;" parent="Z3xM-oqiSJ57B4PCYbaf-2" vertex="1">
          <mxGeometry y="94" width="280" height="30" as="geometry" />
        </mxCell>
        <mxCell id="Z3xM-oqiSJ57B4PCYbaf-9" value="+ ChangeAge()" style="text;html=1;strokeColor=none;fillColor=none;align=left;verticalAlign=top;spacingLeft=4;spacingRight=4;whiteSpace=wrap;overflow=hidden;rotatable=0;points=[[0,0.5],[1,0.5]];portConstraint=eastwest;labelBackgroundColor=none;rounded=1;" parent="Z3xM-oqiSJ57B4PCYbaf-2" vertex="1">
          <mxGeometry y="124" width="280" height="30" as="geometry" />
        </mxCell>
        <mxCell id="Z3xM-oqiSJ57B4PCYbaf-10" value="+ Hide/ShowLikes" style="text;html=1;strokeColor=none;fillColor=none;align=left;verticalAlign=top;spacingLeft=4;spacingRight=4;whiteSpace=wrap;overflow=hidden;rotatable=0;points=[[0,0.5],[1,0.5]];portConstraint=eastwest;labelBackgroundColor=none;rounded=1;" parent="Z3xM-oqiSJ57B4PCYbaf-2" vertex="1">
          <mxGeometry y="154" width="280" height="30" as="geometry" />
        </mxCell>
        <mxCell id="Z3xM-oqiSJ57B4PCYbaf-11" value="+ EmbedSoicalLink()" style="text;html=1;strokeColor=none;fillColor=none;align=left;verticalAlign=top;spacingLeft=4;spacingRight=4;whiteSpace=wrap;overflow=hidden;rotatable=0;points=[[0,0.5],[1,0.5]];portConstraint=eastwest;labelBackgroundColor=none;rounded=1;" parent="Z3xM-oqiSJ57B4PCYbaf-2" vertex="1">
          <mxGeometry y="184" width="280" height="30" as="geometry" />
        </mxCell>
        <mxCell id="Z3xM-oqiSJ57B4PCYbaf-12" value="Class PrivateInfo" style="swimlane;html=1;fontStyle=1;align=center;verticalAlign=top;childLayout=stackLayout;horizontal=1;startSize=26;horizontalStack=0;resizeParent=1;resizeLast=0;collapsible=1;marginBottom=0;swimlaneFillColor=#ffffff;rounded=1;shadow=0;comic=0;labelBackgroundColor=none;strokeWidth=1;fillColor=none;fontFamily=Verdana;fontSize=12;" parent="1" vertex="1">
          <mxGeometry x="2250" y="-750" width="230" height="290" as="geometry" />
        </mxCell>
        <mxCell id="Z3xM-oqiSJ57B4PCYbaf-13" value="constructor() and method of Private" style="text;html=1;strokeColor=none;fillColor=none;align=left;verticalAlign=top;spacingLeft=4;spacingRight=4;whiteSpace=wrap;overflow=hidden;rotatable=0;points=[[0,0.5],[1,0.5]];portConstraint=eastwest;labelBackgroundColor=none;rounded=1;" parent="Z3xM-oqiSJ57B4PCYbaf-12" vertex="1">
          <mxGeometry y="26" width="230" height="30" as="geometry" />
        </mxCell>
        <mxCell id="Z3xM-oqiSJ57B4PCYbaf-17" value="" style="line;html=1;strokeWidth=1;fillColor=none;align=left;verticalAlign=middle;spacingTop=-1;spacingLeft=3;spacingRight=3;rotatable=0;labelPosition=right;points=[];portConstraint=eastwest;labelBackgroundColor=none;rounded=1;" parent="Z3xM-oqiSJ57B4PCYbaf-12" vertex="1">
          <mxGeometry y="56" width="230" height="8" as="geometry" />
        </mxCell>
        <mxCell id="Z3xM-oqiSJ57B4PCYbaf-33" value="@Overide" style="text;html=1;strokeColor=none;fillColor=none;align=left;verticalAlign=top;spacingLeft=4;spacingRight=4;whiteSpace=wrap;overflow=hidden;rotatable=0;points=[[0,0.5],[1,0.5]];portConstraint=eastwest;labelBackgroundColor=none;rounded=1;" parent="Z3xM-oqiSJ57B4PCYbaf-12" vertex="1">
          <mxGeometry y="64" width="230" height="30" as="geometry" />
        </mxCell>
        <mxCell id="Z3xM-oqiSJ57B4PCYbaf-18" value="+ ChangeEmail()" style="text;html=1;strokeColor=none;fillColor=none;align=left;verticalAlign=top;spacingLeft=4;spacingRight=4;whiteSpace=wrap;overflow=hidden;rotatable=0;points=[[0,0.5],[1,0.5]];portConstraint=eastwest;labelBackgroundColor=none;rounded=1;" parent="Z3xM-oqiSJ57B4PCYbaf-12" vertex="1">
          <mxGeometry y="94" width="230" height="30" as="geometry" />
        </mxCell>
        <mxCell id="Z3xM-oqiSJ57B4PCYbaf-19" value="+ ChangePhone()" style="text;html=1;strokeColor=none;fillColor=none;align=left;verticalAlign=top;spacingLeft=4;spacingRight=4;whiteSpace=wrap;overflow=hidden;rotatable=0;points=[[0,0.5],[1,0.5]];portConstraint=eastwest;labelBackgroundColor=none;rounded=1;" parent="Z3xM-oqiSJ57B4PCYbaf-12" vertex="1">
          <mxGeometry y="124" width="230" height="30" as="geometry" />
        </mxCell>
        <mxCell id="Z3xM-oqiSJ57B4PCYbaf-20" value="+ ChangeCareer()" style="text;html=1;strokeColor=none;fillColor=none;align=left;verticalAlign=top;spacingLeft=4;spacingRight=4;whiteSpace=wrap;overflow=hidden;rotatable=0;points=[[0,0.5],[1,0.5]];portConstraint=eastwest;labelBackgroundColor=none;rounded=1;" parent="Z3xM-oqiSJ57B4PCYbaf-12" vertex="1">
          <mxGeometry y="154" width="230" height="30" as="geometry" />
        </mxCell>
        <mxCell id="Z3xM-oqiSJ57B4PCYbaf-21" value="+ viewStatus()" style="text;html=1;strokeColor=none;fillColor=none;align=left;verticalAlign=top;spacingLeft=4;spacingRight=4;whiteSpace=wrap;overflow=hidden;rotatable=0;points=[[0,0.5],[1,0.5]];portConstraint=eastwest;labelBackgroundColor=none;rounded=1;" parent="Z3xM-oqiSJ57B4PCYbaf-12" vertex="1">
          <mxGeometry y="184" width="230" height="30" as="geometry" />
        </mxCell>
        <mxCell id="Z3xM-oqiSJ57B4PCYbaf-23" style="edgeStyle=orthogonalEdgeStyle;rounded=0;orthogonalLoop=1;jettySize=auto;html=1;exitX=1;exitY=0.5;exitDx=0;exitDy=0;entryX=0.5;entryY=0;entryDx=0;entryDy=0;" parent="1" source="8QYSFQG-nEIOQ_LHecQk-6" target="Z3xM-oqiSJ57B4PCYbaf-24" edge="1">
          <mxGeometry relative="1" as="geometry" />
        </mxCell>
        <mxCell id="Z3xM-oqiSJ57B4PCYbaf-32" style="edgeStyle=orthogonalEdgeStyle;rounded=0;orthogonalLoop=1;jettySize=auto;html=1;exitX=1;exitY=0.5;exitDx=0;exitDy=0;entryX=0.5;entryY=0;entryDx=0;entryDy=0;" parent="1" source="Z3xM-oqiSJ57B4PCYbaf-24" target="Z3xM-oqiSJ57B4PCYbaf-12" edge="1">
          <mxGeometry relative="1" as="geometry" />
        </mxCell>
        <mxCell id="Z3xM-oqiSJ57B4PCYbaf-24" value="Extend" style="text;strokeColor=none;align=center;fillColor=none;html=1;verticalAlign=middle;whiteSpace=wrap;rounded=0;" parent="1" vertex="1">
          <mxGeometry x="1970" y="-890" width="60" height="30" as="geometry" />
        </mxCell>
        <mxCell id="Z3xM-oqiSJ57B4PCYbaf-28" style="edgeStyle=orthogonalEdgeStyle;rounded=0;orthogonalLoop=1;jettySize=auto;html=1;entryX=0.429;entryY=0;entryDx=0;entryDy=0;entryPerimeter=0;" parent="1" source="Z3xM-oqiSJ57B4PCYbaf-24" target="Z3xM-oqiSJ57B4PCYbaf-2" edge="1">
          <mxGeometry relative="1" as="geometry" />
        </mxCell>
        <mxCell id="Z3xM-oqiSJ57B4PCYbaf-36" style="edgeStyle=orthogonalEdgeStyle;rounded=0;orthogonalLoop=1;jettySize=auto;html=1;entryX=1;entryY=0.5;entryDx=0;entryDy=0;" parent="1" source="8QYSFQG-nEIOQ_LHecQk-13" target="8QYSFQG-nEIOQ_LHecQk-19" edge="1">
          <mxGeometry relative="1" as="geometry" />
        </mxCell>
      </root>
    </mxGraphModel>
  </diagram>
</mxfile>
